<svg xmlns="http://www.w3.org/2000/svg" width="144" height="144" viewBox="0 0 144 144" fill="none">
<g clip-path="url(#clip0_117_321)">
<path d="M19.2802 71.7359C19.0357 71.7878 18.9048 71.8831 18.9048 72.2034C18.9659 72.567 19.3762 72.5843 19.6206 72.593C21.1833 72.6363 22.7546 72.6016 24.3172 72.6363C29.1361 72.7228 33.9636 72.8354 38.7912 72.9306C38.7912 72.9306 39.5681 72.9046 39.5681 72.9393C40.6332 72.8873 40.5284 72.896 41.3839 72.7575C41.5673 72.7315 41.8553 72.6449 41.8553 72.2726C41.8553 71.8657 41.7506 71.9263 41.3316 71.935C41.2443 71.909 41.0522 71.909 40.9125 71.909C37.1849 71.8484 33.4573 71.8051 29.721 71.7359C28.5425 71.7186 27.3639 71.7878 26.1854 71.7532C24.2823 71.6926 22.4054 71.7012 20.5023 71.658C20.1619 71.658 19.6992 71.6493 19.2802 71.7359Z" fill="black"/>
<path d="M72.3919 119.751C72.3919 120.287 72.4268 119.274 72.4617 119.006C72.4617 118.114 72.4792 117.474 72.4355 116.582C72.4268 116.357 72.4617 115.898 72.1038 115.907C71.6848 115.811 71.6324 116.305 71.5888 116.539C71.4578 117.188 71.3967 117.863 71.3792 118.521C71.3007 120.997 71.2658 123.473 71.1959 125.949C71.1523 127.473 71.0912 128.997 71.0475 130.52C70.9951 132.105 70.934 133.689 70.9253 135.273C70.9253 135.473 71.0126 136.035 71.3618 135.957C71.7983 135.966 71.8681 135.585 71.8856 135.403C71.9729 134.659 72.034 134.191 72.0689 133.706C72.1562 132.148 72.2697 130.901 72.2871 129.343C72.3046 125.993 72.3919 123.118 72.3919 119.751Z" fill="black"/>
<path d="M72.7935 9.80908C72.453 9.80908 72.3483 10.2593 72.3308 10.5017C72.1475 13.2981 72.3133 16.0078 72.1475 19.0726C72.2173 21.1937 72.1387 23.4793 72.3308 25.7735C72.3483 25.9813 72.4443 26.3795 72.7149 26.3795C73.0466 26.3189 73.0466 25.9813 73.0466 25.7735C73.0815 24.7606 73.0379 23.7477 73.0554 22.7347C73.1252 18.683 73.1339 14.6573 73.1776 10.5969C73.1863 10.3458 73.1688 9.80908 72.7935 9.80908Z" fill="black"/>
<path d="M56.0589 21.9814C55.6486 22.1199 55.8756 22.6394 55.9629 22.9164C56.7573 25.4877 57.5779 28.059 58.4247 30.6216C58.966 32.2579 59.5508 33.8768 60.1532 35.4958C60.223 35.6776 60.4587 35.9633 60.7032 35.92C61.0174 35.8507 61.1047 35.6516 61.0174 35.4525C60.8778 34.8984 60.7905 34.4309 60.6508 33.9807C60.031 31.9375 59.4199 29.8857 58.7564 27.8512C58.1715 26.0591 57.5343 24.2756 56.8621 22.5095C56.7748 22.2671 56.5827 21.7477 56.0589 21.9814Z" fill="black"/>
<path d="M59.1231 108.868C58.5993 108.703 58.4072 109.188 58.3025 109.396C57.962 110.123 57.6914 110.885 57.4295 111.647C56.3208 114.859 55.2121 118.054 54.1384 121.274C54.0685 121.473 53.9813 121.828 54.313 121.993C54.8368 122.14 54.9852 121.889 55.1772 121.473C55.3256 121.162 55.3693 120.988 55.4915 120.651C56.6962 117.162 57.9009 113.681 59.0969 110.193C59.1842 109.933 59.254 109.656 59.3501 109.309C59.3501 109.162 59.481 108.989 59.1231 108.868Z" fill="black"/>
<path d="M33.5534 90.2894C33.9986 90.3067 34.4176 90.047 34.793 89.8652C37.4381 88.5752 40.0658 87.2766 42.7109 85.9779C43.4442 85.623 44.1863 85.3027 44.8934 84.9044C45.068 84.8092 45.4346 84.6014 45.1902 84.2291C45.0767 83.9088 44.71 84.0646 44.5093 84.1252C43.9506 84.2897 43.3918 84.5062 42.8681 84.7572C41.5062 85.4152 40.1618 86.1165 38.8087 86.7744C37.0453 87.6315 35.2644 88.4626 33.5097 89.337C33.3002 89.4409 32.8987 89.7526 33.0296 89.9431C33.2217 90.2894 33.3701 90.35 33.5534 90.2894Z" fill="black"/>
<path d="M42.912 58.2307C43.3834 58.4731 43.881 58.6809 44.3873 58.8454C44.5532 58.8973 44.8849 58.8108 44.9548 58.6809C45.0333 58.5424 44.946 58.2567 44.8413 58.0922C44.7453 57.945 44.5445 57.8498 44.3699 57.7632C41.5065 56.2395 38.6344 54.7071 35.7623 53.2007C35.2473 52.9323 34.6973 52.7245 34.0513 52.4388C33.6934 52.3782 33.51 52.7765 33.5275 52.915C33.5624 53.1574 33.7545 53.4691 33.9727 53.5903C36.9321 55.1486 39.9177 56.6897 42.912 58.2307Z" fill="black"/>
<path d="M72.2608 102.496C71.7807 102.496 71.772 102.851 71.7545 103.042C71.6672 104.228 71.6148 105.414 71.6061 106.608C71.5974 108.097 71.6148 109.587 71.676 111.067C71.6847 111.413 71.7458 112.106 72.0251 112.106C72.4616 112.149 72.5751 111.725 72.61 111.119C72.6449 111.058 72.6188 110.954 72.6188 110.877C72.6188 108.513 72.6188 106.47 72.6188 104.106C72.6537 104.106 72.6275 103.795 72.6275 103.509C72.5926 103.258 72.5926 103.301 72.61 103.05C72.6449 102.617 72.5402 102.496 72.2608 102.496Z" fill="black"/>
<path d="M46.7088 101.734C46.4294 101.656 46.1152 101.829 46.0017 101.994C45.6001 102.591 45.2509 103.232 44.9454 103.881C44.2645 105.336 43.601 106.807 42.9637 108.288C42.824 108.608 42.4923 109.136 42.7367 109.327C43.2867 109.595 43.4962 109.396 43.8192 108.859C43.9764 108.643 43.9938 108.565 44.0549 108.435C44.7097 106.972 45.3557 105.491 46.0279 104.037C46.316 103.405 46.5342 103.059 46.8921 102.383C47.1802 101.864 46.8048 101.725 46.7088 101.734Z" fill="black"/>
<path d="M71.6588 39.4957C71.685 39.7641 71.9032 40.1797 72.0953 40.2749C72.5318 40.2749 72.6714 39.7814 72.6802 39.5217C72.7849 37.4093 72.8373 35.2968 72.8548 33.1844C72.8548 32.916 72.8548 32.3706 72.3572 32.3706C71.9119 32.3706 71.8508 32.8814 71.8246 33.1584C71.7024 34.5177 71.7897 35.2016 71.7199 36.5608C71.7199 37.037 71.685 37.4958 71.7024 37.4958C71.7112 38.2491 71.5977 38.7425 71.6588 39.4957Z" fill="black"/>
<path d="M51.4842 92.2888C51.3184 92.2369 51.0128 92.3321 50.8993 92.4706C50.6898 92.7217 50.5763 93.042 50.4192 93.3363C49.5375 95.0072 48.6383 96.6781 47.7915 98.3664C47.6693 98.6088 47.4423 99.1369 47.7915 99.2581C48.3153 99.4053 48.3241 99.1109 48.5947 98.7819C48.7344 98.5482 48.7344 98.5482 48.8042 98.427C49.5113 97.2322 50.2446 96.0375 50.9168 94.8254C51.266 94.1934 51.5104 93.5095 51.8247 92.7996C52.0429 92.3581 51.6326 92.3321 51.4842 92.2888Z" fill="black"/>
<path d="M14.3043 71.4333C13.3265 71.3727 12.3488 71.4073 11.3711 71.4073V71.416C10.306 71.416 9.34576 71.4073 8.28073 71.4506C8.04502 71.4593 7.40775 71.6584 7.51251 71.9008C7.59108 72.2557 7.95772 72.4202 8.19343 72.4375C9.11005 72.5068 10.0354 72.4808 10.9608 72.4808C12.0782 72.4808 13.2043 72.5068 14.313 72.4375C14.6273 72.4202 15.2209 72.299 15.2209 71.9181C15.2296 71.5025 14.6273 71.4506 14.3043 71.4333Z" fill="black"/>
<path d="M47.3027 41.7551C47.4162 41.9282 47.7567 42.2226 48.0273 42.0321C48.359 41.885 48.2106 41.4781 48.1146 41.3222C46.9797 39.4782 45.8012 37.6514 44.6489 35.8161C44.5267 35.6256 44.483 35.6169 44.3957 35.4005C44.2473 35.2533 44.0814 35.3226 43.933 35.3918C43.4965 35.6689 43.6973 36.0671 43.8195 36.2576C44.9457 38.1103 46.1155 39.9457 47.3027 41.7551Z" fill="black"/>
<path d="M50.4016 45.9106C50.0873 45.3825 49.8167 44.8284 49.4587 44.3436C49.3365 44.1705 49.0572 43.9367 48.7516 44.0752C48.3326 44.2311 48.4374 44.4302 48.5945 44.8111C48.7342 45.0449 48.804 45.1574 48.8913 45.2959C49.7556 46.7504 50.515 48.1875 51.4142 49.6247C51.5626 49.8671 51.938 50.1961 52.13 50.1961C52.4356 50.2307 52.5142 50.1441 52.5578 49.9883C52.4792 49.5901 52.3308 49.2091 52.1475 48.8628C51.6063 47.8499 50.9864 46.8889 50.4016 45.9106Z" fill="black"/>
<path d="M61.9598 98.9119C61.7066 99.0158 61.5931 99.2495 61.5146 99.466C60.9122 101.172 60.3622 102.886 59.8297 104.609C59.7686 104.808 59.6639 105.223 60.0305 105.336C60.4495 105.448 60.6678 105.059 60.7638 104.834C61.0606 104.15 61.2352 103.414 61.4709 102.704C61.8288 101.656 62.1955 100.609 62.5883 99.4833C62.7542 98.9292 62.0209 98.8946 61.9598 98.9119Z" fill="black"/>
<path d="M29.1096 91.6136C27.6779 92.2456 26.8835 92.6525 25.478 93.3364C25.3471 93.397 24.6836 93.6481 24.6836 94.0377C24.6836 94.2108 24.8931 94.358 25.0415 94.384C25.2947 94.4273 25.5217 94.4013 25.7574 94.2974C27.0581 93.7087 28.3414 93.0854 29.6159 92.4534C29.7992 92.3668 29.8865 92.3581 30.0437 92.2196C30.0437 92.2629 30.227 91.8906 30.0699 91.7694C29.8516 91.4058 29.3627 91.501 29.1096 91.6136Z" fill="black"/>
<path d="M29.2844 51.0621C29.686 51.2612 30.0963 51.417 30.5764 51.6162C30.8994 51.7287 31.0391 51.4776 31.0915 51.3391C31.1438 51.2006 31.0042 50.9322 30.8732 50.7937C30.6899 50.5946 30.4367 50.4474 30.1923 50.3262C29.1535 49.7894 28.1233 49.2267 27.0496 48.7505C26.7528 48.6207 26.1679 48.3956 25.9496 48.8025C25.81 49.1401 26.3163 49.521 26.6218 49.6942C27.4686 50.1963 28.3852 50.6206 29.2844 51.0621Z" fill="black"/>
<path d="M60.825 39.0974C61.2441 40.3874 61.7068 41.6687 62.2044 42.9327C62.2742 43.1058 62.6234 43.3223 62.7631 43.279C62.9638 43.2097 63.1035 43.0972 63.1908 42.8201C63.1734 42.6124 63.1821 42.5518 63.1646 42.4998C62.702 41.2272 62.2567 39.9459 61.7504 38.6819C61.6893 38.5347 61.2528 38.3875 61.1393 38.4654C60.956 38.5693 60.7639 38.9243 60.825 39.0974Z" fill="black"/>
<path d="M125.547 72.7404C125.547 72.42 125.416 72.3248 125.172 72.2729C124.753 72.1776 124.281 72.1863 123.958 72.1949C122.047 72.2382 120.179 72.2296 118.275 72.2902C117.097 72.3248 115.918 72.2555 114.74 72.2729C111.012 72.3335 107.285 72.3854 103.548 72.446C103.409 72.446 103.217 72.446 103.129 72.472C102.71 72.4633 102.605 72.4027 102.605 72.8096C102.605 73.1732 102.894 73.2598 103.077 73.2944C103.932 73.433 103.828 73.4243 104.893 73.4762C104.893 73.433 105.67 73.4676 105.67 73.4676C110.497 73.3637 115.316 73.2598 120.144 73.1732C121.706 73.1473 123.278 73.1732 124.84 73.13C125.076 73.1213 125.486 73.104 125.547 72.7404Z" fill="black"/>
<path d="M87.5902 23.0461C86.918 24.8123 86.2894 26.5957 85.6958 28.3878C85.0323 30.4223 84.4213 32.4742 83.8014 34.5173C83.6618 34.9675 83.5745 35.435 83.4348 35.9891C83.3475 36.1882 83.4348 36.3787 83.7491 36.4566C83.9935 36.4999 84.2292 36.2142 84.299 36.0324C84.9014 34.4134 85.4863 32.7945 86.0275 31.1582C86.8743 28.5956 87.6949 26.0243 88.4893 23.453C88.5766 23.176 88.8036 22.6565 88.3933 22.518C87.8695 22.2843 87.6862 22.8037 87.5902 23.0461Z" fill="black"/>
<path d="M89.2753 122.01C89.4674 122.417 89.6158 122.677 90.1395 122.53C90.4713 122.365 90.384 122.01 90.3142 121.811C89.2317 118.599 88.1317 115.396 87.023 112.184C86.7611 111.422 86.4905 110.66 86.1501 109.933C86.0453 109.717 85.8532 109.24 85.3295 109.405C84.9715 109.526 85.1025 109.699 85.1025 109.847C85.1985 110.193 85.2683 110.47 85.3556 110.73C86.5516 114.219 87.7563 117.708 88.961 121.188C89.0833 121.525 89.1269 121.69 89.2753 122.01Z" fill="black"/>
<path d="M110.951 89.8649C109.196 88.9905 107.415 88.1593 105.652 87.3022C104.29 86.6356 102.954 85.943 101.592 85.2851C101.069 85.034 100.51 84.8175 99.9511 84.6531C99.7503 84.5925 99.3837 84.4453 99.2702 84.757C99.017 85.1292 99.3924 85.3283 99.567 85.4322C100.274 85.8305 101.025 86.1508 101.749 86.5058C104.386 87.8044 107.022 89.103 109.667 90.393C110.043 90.5748 110.462 90.8345 110.898 90.8172C111.082 90.8778 111.23 90.8172 111.431 90.4709C111.562 90.2804 111.16 89.9688 110.951 89.8649Z" fill="black"/>
<path d="M99.6205 58.6203C99.5157 58.7848 99.4372 59.0704 99.507 59.209C99.5768 59.3388 99.9086 59.4254 100.074 59.3735C100.581 59.209 101.07 59.0012 101.55 58.7588C104.535 57.2177 107.521 55.6767 110.498 54.1097C110.716 53.9972 110.917 53.6855 110.943 53.4344C110.96 53.3046 110.768 52.8977 110.419 52.9583C109.773 53.244 109.223 53.4517 108.708 53.7201C105.836 55.2352 102.964 56.7589 100.101 58.2826C99.9173 58.3778 99.7165 58.4731 99.6205 58.6203Z" fill="black"/>
<path d="M99.5062 104.418C99.2007 103.769 98.8427 103.128 98.4499 102.531C98.3364 102.358 98.0221 102.193 97.7428 102.262C97.6467 102.254 97.2714 102.392 97.5594 102.912C97.9174 103.587 98.1356 103.933 98.4237 104.565C99.0959 106.028 99.7419 107.5 100.397 108.963C100.449 109.093 100.475 109.171 100.632 109.387C100.955 109.924 101.156 110.123 101.715 109.855C101.959 109.664 101.628 109.136 101.488 108.825C100.851 107.344 100.196 105.872 99.5062 104.418Z" fill="black"/>
<path d="M96.6521 99.7952C97.0013 99.674 96.7743 99.1459 96.6521 98.9035C95.8053 97.2153 94.9061 95.5444 94.0332 93.8735C93.876 93.5791 93.7625 93.2501 93.553 93.0077C93.4395 92.8692 93.134 92.774 92.9681 92.8259C92.8197 92.8692 92.4094 92.8952 92.6189 93.3454C92.9332 94.0553 93.1776 94.7392 93.5268 95.3712C94.199 96.5919 94.9323 97.778 95.6394 98.9727C95.7093 99.0939 95.7093 99.0939 95.849 99.3277C96.1196 99.6394 96.137 99.9337 96.6521 99.7952Z" fill="black"/>
<path d="M130.148 71.9614C129.834 71.9787 129.223 72.0306 129.223 72.4375C129.223 72.8271 129.816 72.9397 130.131 72.957C131.248 73.0263 132.365 73.0003 133.483 73.0003C134.408 73.0003 135.333 73.0263 136.25 72.957C136.486 72.9397 136.852 72.7752 136.94 72.4202C137.036 72.1778 136.399 71.9874 136.172 71.97C135.107 71.9181 134.146 71.9354 133.081 71.9354V71.9268C132.103 71.9441 131.117 71.9008 130.148 71.9614Z" fill="black"/>
<path d="M96.4169 42.56C96.6875 42.7504 97.028 42.4647 97.1502 42.2829C98.3374 40.4735 99.5072 38.6381 100.633 36.7854C100.756 36.5863 100.956 36.1881 100.52 35.9197C100.371 35.8504 100.206 35.7811 100.057 35.9283C99.9699 36.1361 99.9262 36.1534 99.804 36.3439C98.6517 38.1793 97.4732 40.006 96.3383 41.8501C96.2336 42.0059 96.0851 42.4128 96.4169 42.56Z" fill="black"/>
<path d="M91.8945 50.5166C91.9295 50.6725 92.0167 50.759 92.3223 50.7244C92.5143 50.7244 92.8897 50.3954 93.0381 50.153C93.9373 48.7159 94.6968 47.2787 95.561 45.8243C95.6483 45.6857 95.7094 45.5732 95.8578 45.3394C96.015 44.9585 96.1197 44.768 95.7007 44.6036C95.4039 44.465 95.1245 44.6988 94.9936 44.8719C94.6357 45.3654 94.3651 45.9195 94.0508 46.4389C93.4659 47.4172 92.8461 48.3869 92.3136 49.3911C92.1215 49.7374 91.9818 50.1184 91.8945 50.5166Z" fill="black"/>
<path d="M82.938 100.003C82.8595 99.7862 82.746 99.5438 82.4928 99.4485C82.4317 99.4225 81.6984 99.4658 81.873 100.02C82.2658 101.145 82.6325 102.193 82.9904 103.241C83.2261 103.95 83.4007 104.686 83.6975 105.37C83.7936 105.595 84.0118 105.985 84.4308 105.872C84.7975 105.76 84.6927 105.353 84.6316 105.145C84.0904 103.422 83.5404 101.708 82.938 100.003Z" fill="black"/>
<path d="M118.975 93.8731C117.569 93.1805 116.775 92.7736 115.343 92.1502C115.09 92.0377 114.601 91.9424 114.374 92.306C114.226 92.4272 114.4 92.7995 114.409 92.7562C114.566 92.8948 114.653 92.9034 114.837 92.99C116.111 93.622 117.395 94.2453 118.695 94.834C118.931 94.9379 119.158 94.9639 119.411 94.9206C119.559 94.8946 119.769 94.7388 119.769 94.5743C119.769 94.1761 119.097 93.9337 118.975 93.8731Z" fill="black"/>
<path d="M117.412 49.2698C116.338 49.7374 115.308 50.3001 114.269 50.8455C114.024 50.9754 113.771 51.1226 113.588 51.313C113.457 51.4515 113.317 51.7199 113.37 51.8584C113.422 52.0056 113.562 52.248 113.885 52.1355C114.356 51.9364 114.775 51.7719 115.177 51.5814C116.076 51.1399 116.993 50.7156 117.848 50.2135C118.145 50.0404 118.66 49.6594 118.52 49.3218C118.293 48.9235 117.708 49.14 117.412 49.2698Z" fill="black"/>
<path d="M81.689 43.8157C81.8287 43.8677 82.1779 43.6426 82.2477 43.4694C82.7453 42.2054 83.208 40.9241 83.627 39.6341C83.6881 39.461 83.4961 39.106 83.3127 38.9935C83.1992 38.9156 82.7628 39.0714 82.7017 39.2099C82.1953 40.4739 81.7501 41.7552 81.2874 43.0279C81.27 43.0798 81.2787 43.1404 81.2612 43.3482C81.3485 43.6339 81.4882 43.7378 81.689 43.8157Z" fill="black"/>
<path d="M94.1989 61.3987C93.2037 60.0395 92.1213 58.5504 90.8031 56.715C90.6459 56.4986 90.4975 56.2648 90.3491 56.0484C90.157 55.754 89.9563 55.4424 89.738 55.1567C89.5809 54.9575 89.2928 54.7411 89.0484 54.7411C88.4897 54.7324 87.931 54.7584 87.3897 54.7757C87.0056 54.793 86.6128 54.8104 86.2199 54.8104C85.12 54.8277 84.0026 54.8277 82.9201 54.8277H82.2479C81.855 54.8277 81.4622 54.8277 81.0781 54.8277C80.6241 54.8277 80.1789 54.8277 79.725 54.8277C78.9568 54.8277 78.3369 54.819 77.7608 54.8104H77.7259C77.1759 54.8104 76.914 55.174 76.7045 55.4683C75.9101 56.5765 75.1244 57.6933 74.3387 58.8101C73.8149 59.546 73.2999 60.2819 72.7761 61.0178C72.6626 61.1823 72.5316 61.3381 72.3832 61.5199C72.3396 61.5805 72.2872 61.6325 72.2436 61.7017L71.8071 61.0784C71.423 60.5243 71.0476 59.9962 70.6809 59.4508C69.5024 57.7279 68.612 56.4033 67.7914 55.1653C67.547 54.8017 67.2501 54.6372 66.8136 54.6372H66.7613C65.0939 54.6892 63.5924 54.7151 62.1781 54.7238C61.3401 54.7324 60.502 54.7324 59.6552 54.7324H58.0664C57.1934 54.7324 56.3205 54.7324 55.4562 54.7411C55.2642 54.7411 54.9237 54.8104 54.784 55.0008C54.3912 55.5116 54.0245 56.0484 53.6666 56.5678C53.4833 56.8362 53.3 57.0959 53.1079 57.3643C52.1389 58.7235 51.1786 60.0828 50.2009 61.442C49.7557 62.0653 49.7906 62.1519 50.2707 62.8705C51.1699 64.1951 52.0691 65.5197 52.9682 66.8443C53.7539 67.9957 54.5396 69.1558 55.3253 70.3073L55.4649 70.5151C56.4252 71.9176 57.4117 73.372 58.3982 74.7832C58.887 75.4931 59.3933 76.1944 59.8909 76.8956C60.5108 77.7614 61.148 78.6618 61.7591 79.5535C62.763 81.0166 63.7757 82.5057 64.7622 83.9428C65.6875 85.3021 66.6129 86.67 67.547 88.0292C68.4199 89.3018 69.3278 90.5831 70.2008 91.8298C70.6024 92.3926 71.0039 92.9639 71.3968 93.5267C71.5452 93.7431 71.7722 93.873 72.0079 93.873C72.2348 93.873 72.4444 93.7518 72.5928 93.5527C73.1602 92.7562 73.7276 91.9337 74.2776 91.1459L74.5744 90.713C74.8799 90.2801 75.1768 89.8386 75.4736 89.4057C76.1021 88.4794 76.7568 87.527 77.4116 86.6007C77.883 85.9254 78.3719 85.2588 78.852 84.6008C79.2798 84.0121 79.7337 83.3974 80.1615 82.7914C80.8424 81.8304 81.5233 80.8608 82.1955 79.8911C82.7979 79.0254 83.4002 78.1683 84.0113 77.3112C84.4303 76.7138 84.8581 76.1251 85.2858 75.5278C85.6874 74.9737 86.089 74.4109 86.4905 73.8568C87.2064 72.8353 87.9222 71.8223 88.6381 70.8008C89.511 69.5627 90.3753 68.316 91.257 67.078C91.6498 66.5153 92.0601 65.9612 92.4617 65.4071C93.0291 64.628 93.614 63.8228 94.1727 63.009C94.6703 62.2991 94.7402 62.1346 94.1989 61.3987ZM55.8491 55.2952L55.8578 55.3818L57.3855 55.3904C58.695 55.3904 59.9957 55.3991 61.3052 55.3991C63.2257 55.3991 64.8058 55.3904 66.2899 55.3731H66.3248C66.8573 55.3731 67.1454 55.5376 67.4684 56.0138C68.3239 57.2864 69.2056 58.5591 70.0699 59.7971C70.4627 60.3685 70.8643 60.9312 71.2571 61.5026C71.4579 61.7883 71.5888 62.0221 71.6936 62.2472C71.7285 62.3164 71.7023 62.4636 71.6587 62.5415C71.0214 63.4246 70.3841 64.3076 69.7381 65.1907C69.4238 65.6236 69.1096 66.0565 68.7953 66.4807C67.5295 68.2208 66.2724 69.961 65.0066 71.7098C64.1773 72.8526 63.3567 73.9954 62.5361 75.1468L61.4186 76.7052C61.3314 76.8264 61.244 76.9562 61.1393 77.1121L61.0258 77.2766C60.9734 77.2073 60.921 77.1467 60.8687 77.0861C60.7203 76.9043 60.5893 76.7398 60.4671 76.5666C60.0306 75.9347 59.5941 75.3027 59.1576 74.6707C58.6338 73.9088 58.1101 73.1383 57.5775 72.3764C57.2458 71.9003 56.9141 71.4328 56.5736 70.9652C56.0673 70.2553 55.5435 69.5281 55.0546 68.7922C53.5793 66.5759 52.1389 64.3682 50.8032 62.2991C50.7334 62.1952 50.7334 61.9615 50.8032 61.8662C51.65 60.6369 52.523 59.3988 53.3698 58.2041L53.8499 57.5202C54.042 57.2518 54.234 56.9747 54.4261 56.7063C54.6531 56.3947 54.8713 56.083 55.0983 55.7713C55.2816 55.5116 55.4999 55.3991 55.8403 55.3991V55.2952H55.8491ZM78.0052 55.477L78.0139 55.5636C79.4107 55.5722 80.8162 55.5636 82.213 55.5462C84.5962 55.5203 86.5953 55.503 88.6206 55.4683H88.6468C88.9611 55.4683 89.1531 55.5722 89.3277 55.8146C90.4102 57.3557 91.5102 58.9227 92.5839 60.4291L93.0466 61.087C93.2474 61.3641 93.4482 61.6411 93.6751 61.9355C93.8323 62.1433 93.8323 62.2991 93.6664 62.5328C92.645 63.9613 91.6149 65.4158 90.6285 66.8356L88.2976 70.1601C86.9358 72.0907 85.5826 74.03 84.2208 75.952C83.9502 76.3415 83.6708 76.7052 83.3653 77.1034C83.2518 77.2592 83.1296 77.4151 83.0074 77.5796C82.8851 77.4151 82.7717 77.2592 82.6582 77.1034C82.3701 76.7138 82.0995 76.3502 81.8463 75.9693C80.563 74.0819 79.271 72.1513 78.0227 70.29L77.5862 69.6407C76.8965 68.6191 76.2069 67.5888 75.526 66.5586C74.6443 65.2426 73.7625 63.9267 72.8808 62.6108C72.7324 62.3943 72.6888 62.2471 72.8459 62.0394C74.5308 59.7538 75.9974 57.7452 77.333 55.9099C77.5076 55.6675 77.7171 55.5636 78.0401 55.5636V55.477H78.0052ZM61.5147 77.7527C62.0123 77.0341 62.5273 76.3156 63.0249 75.623C63.2257 75.3373 63.4352 75.0516 63.636 74.7659C63.959 74.3157 64.282 73.8568 64.605 73.398C65.155 72.6102 65.7312 71.805 66.3073 71.0085C67.224 69.7359 68.1755 68.4459 69.0834 67.2079L70.3405 65.4937C70.8992 64.7232 71.4666 63.9613 72.0253 63.1908C72.0602 63.1389 72.1126 63.0869 72.1737 63.0177L72.2086 62.9744C72.2959 63.0956 72.3832 63.2168 72.4705 63.338C72.6801 63.6237 72.8808 63.9007 73.0642 64.1778C73.7451 65.1907 74.4173 66.2036 75.0982 67.2165C75.6569 68.0477 76.2156 68.8874 76.7743 69.7186C77.5163 70.8267 78.2671 71.9349 79.0091 73.0344C79.5591 73.8482 80.1004 74.6533 80.6503 75.4671C80.8948 75.8308 81.1392 76.203 81.3836 76.5666C81.7066 77.0515 82.0296 77.5363 82.3526 78.0124C82.4748 78.1943 82.4661 78.3155 82.3352 78.5059C81.4535 79.744 80.5805 80.9906 79.7075 82.2373C79.271 82.8607 78.8345 83.484 78.398 84.1073L77.7608 85.0164C76.7656 86.4362 75.7355 87.908 74.7054 89.3451C74.1728 90.0897 73.6403 90.8342 73.0991 91.5787C72.8197 91.9597 72.5491 92.3406 72.2697 92.7302C72.1999 92.8341 72.1301 92.938 72.0515 93.0678L72.0079 93.1458C71.9293 93.0505 71.8507 92.9553 71.7722 92.8601C71.5714 92.609 71.3706 92.3752 71.196 92.1242C70.4103 91.0074 69.6159 89.8559 68.8477 88.7478L67.6779 87.0595C66.8311 85.8388 65.9581 84.5748 65.1113 83.3282C64.0638 81.7958 62.9638 80.1595 61.5409 78.0298C61.4972 77.9605 61.4885 77.796 61.5147 77.7527Z" fill="black"/>
<path d="M69.1532 80.0815C69.4326 80.3846 69.7207 80.6876 70 80.9906C70.6199 81.6659 71.2484 82.3325 71.8682 83.0078C72.0515 83.2069 72.2174 83.3021 72.3833 83.3021C72.5666 83.3021 72.7412 83.1809 72.9071 82.9212C72.9507 82.8519 72.9943 82.7913 73.038 82.7221C73.1951 82.471 73.361 82.2113 73.5705 82.0295C74.6967 81.0425 75.6744 79.9171 76.4863 78.679C77.1235 77.7094 77.7957 76.3848 77.3767 74.7312C77.0711 73.5365 76.2767 72.8525 75.1855 72.8525C74.7141 72.8525 74.2165 72.9911 73.7451 73.2421C73.3872 73.4326 73.0816 73.6923 72.7586 73.9694C72.6277 74.0819 72.5055 74.1858 72.3658 74.2983L72.261 74.1685C72.1388 74.0213 72.0079 73.8828 71.8769 73.7356C71.2833 73.0949 70.5675 72.8006 69.9127 72.9305C67.7739 73.346 66.8835 74.6273 67.2764 76.7571C67.5295 78.1769 68.4112 79.2851 69.1532 80.0815ZM68.1231 75.1554C68.4025 74.3762 69.2493 73.7443 70.035 73.7096C70.0611 73.7096 70.0786 73.7096 70.1048 73.7096C70.5849 73.7096 70.9952 73.8828 71.3008 74.2377C71.3531 74.2983 71.3968 74.3503 71.4492 74.4109L71.4928 74.4715C71.9118 74.9996 72.1214 75.2593 72.3745 75.2593C72.619 75.2593 72.8372 75.0169 73.2824 74.5407C73.8586 73.9261 74.4522 73.6317 75.1331 73.6231H75.1593C75.6919 73.6231 76.0934 73.8741 76.3815 74.3763C76.8267 75.1641 76.8616 76.0125 76.5037 76.9562C75.9887 78.3327 75.0546 79.4063 73.9721 80.5664C73.5967 80.9646 73.2213 81.3455 72.8197 81.7524C72.6364 81.9343 72.4531 82.1247 72.261 82.3152C72.0777 82.1247 71.8944 81.9256 71.7023 81.7265C71.196 81.1984 70.681 80.6529 70.1834 80.0902L70.0524 79.943C69.5199 79.3283 68.9699 78.705 68.5596 78.0037C67.9485 76.9389 67.8089 76.0385 68.1231 75.1554Z" fill="black"/>
<path d="M79.8823 67.8317L79.926 67.9615L80.022 67.8663C80.0569 67.8317 80.0919 67.8057 80.1355 67.7797C80.2315 67.7105 80.3276 67.6325 80.3712 67.52C80.5458 67.0611 80.7466 66.5244 80.8775 65.9703C80.9823 65.5634 81.1744 65.4249 81.6021 65.4682C81.768 65.4855 81.9513 65.4855 82.1696 65.4855C82.3092 65.4855 82.4576 65.4855 82.5973 65.4768C82.7108 65.4768 82.8243 65.4768 82.9378 65.4682V65.4855H83.0251C83.1822 65.4855 83.3393 65.4855 83.4965 65.4855C83.6536 65.4855 83.8108 65.4855 83.9679 65.4855C84.256 65.4855 84.4829 65.4941 84.6925 65.5028C84.8234 65.5114 84.998 65.6067 85.0416 65.6933C85.2948 66.1954 85.5131 66.7062 85.7226 67.2083C85.7575 67.2949 85.7837 67.3901 85.8099 67.4854C85.8448 67.6152 85.8797 67.7537 85.9495 67.8836C86.0019 67.9875 86.1241 68.0221 86.2464 68.0654C86.29 68.0827 86.3337 68.0914 86.3773 68.1087L86.4646 68.152L86.4995 68.0654C86.517 68.0221 86.5344 67.9875 86.5519 67.9442C86.6043 67.8317 86.6654 67.7191 86.6305 67.6152C86.5344 67.3122 86.4122 67.0092 86.2987 66.7235C86.2464 66.6023 86.194 66.4724 86.1503 66.3512C85.9932 65.9443 85.8273 65.5374 85.6615 65.1305C85.2686 64.1436 84.8583 63.1306 84.4917 62.1177C84.2298 61.3818 84.0028 60.6113 83.7933 59.8668C83.7147 59.607 83.6449 59.3387 83.5663 59.0789C83.4441 58.672 83.2433 58.4902 82.964 58.5768C82.7021 58.6634 82.3791 58.8971 82.2918 59.1568C81.7767 60.62 81.3228 62.0571 80.9474 63.2692C80.572 64.4812 80.1792 65.8145 79.7514 67.3295C79.7165 67.4507 79.7776 67.5806 79.8387 67.7018C79.8474 67.7364 79.8649 67.7797 79.8823 67.8317ZM81.3751 64.6976C81.3577 64.6717 81.3577 64.6111 81.3751 64.5245C81.4624 64.2128 81.5497 63.9011 81.637 63.5895C82.0037 62.2909 82.3703 60.9403 83.0163 59.685L84.5441 64.7409C84.4917 64.7496 84.4306 64.7582 84.3782 64.7669C84.1774 64.7929 83.9766 64.8188 83.7758 64.8188H83.7496C83.2782 64.8102 82.7981 64.7929 82.3354 64.7756C82.0735 64.7669 81.8116 64.7496 81.5497 64.7409C81.4537 64.7409 81.3926 64.7236 81.3751 64.6976Z" fill="black"/>
<path d="M59.0087 68.0826C59.061 68.6021 59.3578 68.7146 59.5935 68.7146C59.611 68.7146 59.6285 68.7146 59.6547 68.7146C59.9602 68.6973 60.2657 68.68 60.5713 68.6713C61.3133 68.6454 62.0903 68.6107 62.8236 68.4462C63.5743 68.2817 64.1505 67.7969 64.4473 67.0697C64.7703 66.2905 64.7092 65.3988 64.2814 64.7408C64.0545 64.3945 63.7315 64.1088 63.4085 63.8318C63.295 63.7366 63.1815 63.6327 63.068 63.5288C63.9672 63.0353 64.3687 62.1869 64.2465 61.0268C64.1767 60.2909 63.5394 59.3645 62.8323 59.2606C61.8458 59.1221 60.8506 59.0442 59.6634 58.9749C59.419 58.9576 59.2444 59.0096 59.1396 59.1221C59.0261 59.2433 58.9825 59.4165 58.9912 59.6849C58.9999 59.832 59.0087 59.9879 59.0261 60.1351C59.0523 60.3688 59.0698 60.6199 59.061 60.8536C59.0436 61.754 59.0087 62.6457 58.9825 63.5461C58.9475 64.5937 58.9214 65.6326 58.8952 66.6801C58.8864 67.0697 58.9301 67.4593 58.965 67.8402L59.0087 68.0826ZM59.6547 65.797C59.6547 65.6758 59.6547 65.5633 59.6547 65.4421C59.6547 65.0612 59.6459 64.6629 59.6721 64.2733C59.6809 64.1781 59.838 63.9963 59.8904 63.9876C60.0388 63.9876 60.1959 63.9876 60.3443 63.979C60.4927 63.979 60.6498 63.9703 60.7983 63.9703C61.3744 63.9703 61.9942 64.005 62.5966 64.2474C63.5307 64.6369 64.0108 65.546 63.7576 66.4637C63.4696 67.5112 62.9109 67.9441 61.8197 67.9701C61.5665 67.9787 61.3046 67.9701 61.0514 67.9701C60.7372 67.9701 60.4142 67.9614 60.0999 67.9787H60.0562C59.7682 67.9787 59.6634 67.8575 59.6547 67.5372C59.6547 67.1649 59.6547 66.8013 59.6547 66.429V65.875V65.797ZM61.9506 63.1479C61.7149 63.1652 61.4705 63.1565 61.226 63.1565C61.1125 63.1565 61.0078 63.1565 60.8943 63.1565L60.807 63.1652C60.7372 63.1652 60.676 63.1652 60.6149 63.1652C60.5189 63.1652 60.4316 63.1652 60.3356 63.1652C60.161 63.1652 60.0213 63.1565 59.8904 63.1479C59.8293 63.1392 59.6896 63.0093 59.6896 62.966C59.6983 62.4553 59.7158 61.9271 59.7332 61.4164C59.7507 60.9142 59.7682 60.4034 59.7769 59.9013C59.7769 59.7022 59.8467 59.6849 59.9602 59.6849C59.9689 59.6849 59.9864 59.6849 59.9951 59.6849C60.2046 59.7022 60.4054 59.7108 60.6149 59.7195C61.13 59.7455 61.6712 59.7714 62.1863 59.8494C63.1291 59.9965 63.5831 60.6718 63.5045 61.7886C63.4521 62.5072 62.7799 63.0959 61.9506 63.1479Z" fill="black"/>
<path d="M17.3945 24.7256C17.4993 24.7256 17.5779 24.6737 17.6215 24.639C17.8398 24.4745 18.0318 24.2668 18.2151 24.0676L18.2501 24.0244C18.3985 23.8599 18.5032 23.7733 18.573 23.7733C18.6516 23.7733 18.7476 23.8599 18.9048 24.0244L19.5246 24.691C20.2928 25.5221 21.061 26.3532 21.838 27.1757C21.9864 27.3315 21.9864 27.4441 21.8467 27.5826L21.7507 27.6778C21.5586 27.8683 21.3578 28.0588 21.192 28.2665C20.9475 28.4743 20.869 28.5349 20.8777 28.6215C20.8777 28.6908 20.9388 28.7254 21.0174 28.7773C21.0872 28.8293 21.1571 28.8552 21.2182 28.8552C21.3229 28.8552 21.4015 28.786 21.4713 28.734C21.4975 28.7081 21.5324 28.6821 21.5586 28.6734C21.7245 28.5782 21.8554 28.4483 21.9951 28.3185L22.0475 28.2665C22.161 28.154 22.2832 28.0328 22.3967 27.9202C22.5626 27.7557 22.7284 27.5826 22.903 27.4268C23.2871 27.0631 23.6712 26.7082 24.0641 26.3532C24.7188 25.7472 25.3997 25.1152 26.0545 24.4919C26.3338 24.2235 26.5957 23.8945 26.8401 23.5136C27.1108 23.098 27.1981 22.6824 27.102 22.3188C27.006 21.9725 26.7354 21.6695 26.3251 21.4617C26.0632 21.3232 25.7664 21.2626 25.4783 21.1934C25.3648 21.1674 25.2513 21.1414 25.1378 21.1154C25.1116 21.0289 25.0942 20.9336 25.0767 20.8384C25.0244 20.5787 24.9632 20.3103 24.8236 20.0852C24.5093 19.5917 23.9855 19.2974 23.4181 19.2974C23.0514 19.2974 22.6673 19.4186 22.3181 19.661C21.6634 20.0939 20.9912 20.622 20.2666 21.2713C19.2889 22.137 18.3286 23.0547 17.4033 23.9378L17.2112 24.1196C17.1676 24.1629 17.0366 24.3014 17.0453 24.4486C17.0453 24.5178 17.0803 24.5698 17.1326 24.6131C17.2112 24.6823 17.2985 24.7256 17.3945 24.7256ZM24.003 21.7907C23.7847 21.9725 23.5665 22.163 23.357 22.3535C23.2609 22.44 23.1649 22.5266 23.0689 22.6218L23.0165 22.6651L23.0252 22.6738C22.9641 22.743 22.8157 22.8816 22.7022 22.9941C22.4665 23.2279 22.3618 23.3318 22.3181 23.3837L21.9166 23.7387C21.5586 24.059 21.4539 24.1542 20.8864 24.6737C20.773 24.7776 20.6769 24.8295 20.5984 24.8295C20.5198 24.8295 20.4325 24.7776 20.3277 24.6564C20.0135 24.2841 19.673 23.9205 19.35 23.5655L19.3325 23.5395C19.1492 23.3404 19.1492 23.2106 19.3325 23.0374C19.6381 22.7517 19.9436 22.466 20.2492 22.1803C20.7817 21.6782 21.3229 21.1587 21.8904 20.6826C22.2396 20.3795 22.6935 20.1718 23.0951 20.0073C23.1649 19.9813 23.2435 19.964 23.3308 19.964C23.68 19.964 24.099 20.2151 24.2474 20.5094C24.4744 20.9509 24.3696 21.4964 24.003 21.7907ZM24.9807 24.6477C24.8847 24.7429 24.7712 24.8468 24.6402 24.9853C24.6141 25.0027 24.5704 25.0373 24.4744 25.1239C24.4395 25.1585 24.3958 25.1931 24.3696 25.2191L24.3609 25.2104L24.3172 25.2537C24.195 25.3749 24.0641 25.5048 23.9419 25.626C23.645 25.929 23.3395 26.232 23.0165 26.5264C22.8244 26.6995 22.7022 26.7774 22.5887 26.7774C22.4665 26.7774 22.3443 26.6995 22.1261 26.4831C21.8816 26.2407 21.6285 26.0069 21.384 25.7732L21.288 25.6866C21.1745 25.5741 21.1221 25.4875 21.1221 25.4009C21.1221 25.323 21.1745 25.2451 21.2706 25.1671C21.4364 25.02 21.6023 24.8728 21.7507 24.7256C21.8642 24.6217 21.9689 24.5178 22.0824 24.4139C22.3705 24.1542 22.6411 23.8772 22.903 23.6088C23.4704 23.0287 24.0553 22.4314 24.8061 22.0331C25.0069 21.9292 25.2077 21.8773 25.4085 21.8773C25.6442 21.8773 25.8886 21.9552 26.1592 22.1024C26.4386 22.2669 26.5084 22.6998 26.3164 23.0547C26.1505 23.3577 25.9322 23.6521 25.6529 23.9638C25.3648 24.2754 25.1989 24.4399 24.9807 24.6477Z" fill="black"/>
<path d="M5.94967 57.4165C5.97586 57.4684 5.97586 57.5463 5.94967 57.6502L5.90602 57.7888C5.83618 58.0052 5.77508 58.2303 5.74016 58.4727C5.7227 58.5766 5.69651 58.7757 5.91475 58.8623L5.94094 58.8709C6.16792 58.8709 6.22029 58.7584 6.25521 58.6718C6.26394 58.6545 6.27267 58.6372 6.2814 58.6199C6.34251 58.516 6.37743 58.3861 6.40362 58.2649C6.41235 58.2303 6.42108 58.2043 6.42981 58.1697C6.48219 57.9706 6.52584 57.7801 6.57822 57.581C6.66552 57.2347 6.75281 56.8797 6.84884 56.5334C6.96233 56.1265 7.09327 55.711 7.21549 55.3127C7.52976 54.2911 7.86149 53.2349 7.98371 52.1354C8.05355 51.5121 7.94006 51.0272 7.64325 50.6723C7.3639 50.3346 6.92741 50.1442 6.35124 50.1009C5.86237 50.0576 5.45207 50.2394 5.03304 50.6636C5.02431 50.6463 5.01559 50.629 5.00686 50.603C4.96321 50.5078 4.91956 50.4212 4.86718 50.3346C4.60529 49.8931 4.13388 49.6161 3.65374 49.6074H3.63628C2.86806 49.6074 2.2046 50.023 1.85541 50.7242C1.54114 51.3389 1.3229 51.9969 1.13957 52.6289C0.860219 53.5726 0.598326 54.5422 0.345163 55.4859C0.257865 55.8235 0.161837 56.1525 0.074539 56.4901C0.0658093 56.5161 0.0570806 56.5421 0.0483508 56.5681C0.0221615 56.6546 -0.0127603 56.7499 0.00469927 56.8451C0.013429 56.8797 0.0134309 56.9057 0.0134309 56.9403C0.0221607 57.0529 0.0396194 57.1827 0.196755 57.3126L0.214215 57.3299H0.240403C0.484837 57.3213 0.545947 57.1568 0.589596 57.0356C0.598325 57.0182 0.607055 57.0009 0.607055 56.9836C0.685623 56.8105 0.729271 56.62 0.77292 56.4295C0.790379 56.3689 0.799109 56.317 0.816568 56.2564C0.860217 56.0832 0.947514 56.0573 1.01735 56.0573C1.05227 56.0573 1.08719 56.0659 1.13084 56.0746L1.74192 56.2391C3.07758 56.6027 4.41323 56.9576 5.74889 57.3126C5.86237 57.3299 5.92348 57.3645 5.94967 57.4165ZM1.49749 53.7197C1.49749 53.7024 1.50622 53.6851 1.50622 53.6678C1.51495 53.6072 1.52368 53.5639 1.52368 53.5293C1.60225 53.2955 1.67209 53.0704 1.75065 52.8367C1.92525 52.2999 2.10857 51.7372 2.30063 51.2004C2.48395 50.6983 2.96409 50.3606 3.49661 50.3606C3.70612 50.3606 3.91564 50.4126 4.09896 50.5165C4.45688 50.7156 4.64894 51.2177 4.53545 51.6679C4.2561 52.7761 3.95056 53.9275 3.61883 55.1742C3.46169 55.7629 3.32201 55.9447 3.05139 55.9447C2.90298 55.9447 2.71093 55.8928 2.40539 55.7802C2.17841 55.6936 1.93398 55.633 1.707 55.5724C1.60225 55.5465 1.50622 55.5205 1.41019 55.4945C1.26179 55.4512 1.18322 55.3993 1.1483 55.33C1.11338 55.2694 1.12211 55.1828 1.16576 55.0703C1.22687 54.9058 1.27052 54.7327 1.30544 54.5682C1.3229 54.4816 1.34908 54.395 1.36654 54.3084C1.41019 54.1266 1.42765 54.066 1.46257 53.9621L1.53241 53.7197H1.49749ZM4.38704 54.5768L4.54418 53.9968C4.71878 53.3388 4.91083 52.6635 5.10288 51.9969C5.17272 51.7631 5.26875 51.5207 5.40843 51.2956C5.69651 50.8195 6.20284 50.6723 6.82265 50.906C7.13692 51.0273 7.39881 51.564 7.34644 52.0142C7.22422 53.1916 6.8663 54.3344 6.52584 55.4339C6.42108 55.7716 6.31632 56.1005 6.22029 56.4382C6.15919 56.6546 6.05443 56.6893 5.96713 56.6893C5.94094 56.6893 5.90602 56.6893 5.87983 56.6806L5.73143 56.646C5.20764 56.5248 4.67513 56.4036 4.15134 56.2477C4.10769 56.2304 4.02039 56.014 4.04658 55.9014C4.09896 55.6071 4.18626 55.3127 4.26483 55.0357C4.29975 54.9145 4.33467 54.7933 4.36959 54.6721L4.38704 54.5768Z" fill="black"/>
<path d="M7.82613 37.885C7.94835 37.885 8.05311 37.7898 8.09676 37.7465C8.18405 37.6599 8.23643 37.5474 8.28881 37.4435C8.315 37.4002 8.33246 37.3569 8.35865 37.3136C8.44595 37.1664 8.52451 37.0192 8.62054 36.8548L8.78641 36.5691C8.82133 36.6124 8.85625 36.6556 8.88244 36.6903C8.961 36.7855 9.01338 36.8634 9.05703 36.9413C9.32765 37.4002 9.58955 37.859 9.86017 38.3265C10.3927 39.2442 10.9339 40.1966 11.4926 41.1229C11.7545 41.5644 11.8244 41.8675 11.4752 42.257C11.3792 42.4042 11.222 42.6813 11.2744 42.8371C11.2919 42.889 11.3268 42.9237 11.3792 42.941C11.4403 42.9583 11.5014 42.9756 11.5537 42.9756C11.772 42.9756 11.8855 42.8025 11.964 42.6726C11.9815 42.6466 11.9902 42.6293 12.0077 42.6033C12.2259 42.283 12.4355 41.9454 12.6362 41.6164C12.8894 41.2008 13.1513 40.7766 13.4394 40.3784C13.6489 40.084 13.614 39.8589 13.6052 39.7983C13.5965 39.755 13.5703 39.6944 13.5267 39.6771C13.4568 39.6425 13.3957 39.6252 13.3346 39.6252C13.1426 39.6252 13.0378 39.7983 12.9505 39.9541C12.933 39.9888 12.9156 40.0147 12.8981 40.0407C12.741 40.2831 12.5839 40.5255 12.418 40.7939L12.2347 41.0796C12.1736 40.9844 12.1212 40.8892 12.0688 40.7939C11.9204 40.5255 11.7894 40.3004 11.6236 40.084C11.4228 39.8156 11.4315 39.5732 11.6498 39.2529C12.095 38.5949 12.933 37.2963 13.3608 36.5517C13.4306 36.5431 13.6052 36.5344 13.8584 36.5344C14.0679 36.5344 14.2862 36.5431 14.4957 36.5604C14.5219 36.5691 14.5568 36.5691 14.583 36.5691C14.6877 36.5864 14.8361 36.6124 14.8623 36.6643C14.8885 36.7249 14.8187 36.8548 14.7663 36.95C14.7226 37.0279 14.6703 37.1058 14.6266 37.1751C14.5393 37.3049 14.452 37.4435 14.3822 37.5906L14.3735 37.608C14.3298 37.7032 14.26 37.859 14.4346 38.0235L14.452 38.0322C14.5044 38.0581 14.5568 38.0668 14.6004 38.0668C14.6965 38.0668 14.7576 38.0149 14.81 37.9716C14.8361 37.9543 14.8536 37.9369 14.8798 37.9283C14.9584 37.885 15.0107 37.7984 15.0457 37.7205C15.0544 37.7032 15.0631 37.6859 15.0718 37.6686C15.325 37.2443 15.5782 36.8201 15.8226 36.3959L16.0758 35.963C16.1194 35.8938 16.1543 35.8245 16.198 35.7553C16.3289 35.5302 16.4686 35.2964 16.5821 35.0627C16.5908 35.0453 16.5996 35.0367 16.6083 35.0194C16.6607 34.9241 16.7305 34.7856 16.6781 34.6817C16.6519 34.6298 16.6083 34.6038 16.5384 34.5865C16.4861 34.5346 16.425 34.5172 16.3638 34.5172C16.2329 34.5172 16.1456 34.6384 16.0845 34.725C16.067 34.7423 16.0583 34.7596 16.0496 34.777C15.875 34.9934 15.7091 35.2531 15.5869 35.5215C15.456 35.7985 15.2726 35.9024 14.9584 35.9024C14.906 35.9024 14.8536 35.9024 14.8012 35.8938C14.2774 35.8505 13.7449 35.8072 13.2211 35.7726C12.7759 35.7466 12.3132 35.712 11.8506 35.6773C11.1609 35.6167 10.6022 35.5561 10.0871 35.4782C9.94747 35.4522 9.7816 35.4263 9.74668 35.357C9.71176 35.2878 9.80779 35.1233 9.88636 34.9847C9.91255 34.9501 9.93874 34.9068 9.96493 34.8722C10.0435 34.751 10.1308 34.6211 10.1832 34.4739C10.1919 34.4566 10.2006 34.4307 10.2181 34.4133C10.2617 34.3268 10.3228 34.2229 10.2705 34.1277C10.2443 34.0757 10.1919 34.0411 10.1133 34.0238C10.0697 33.9891 10.026 33.9805 9.98239 33.9805C9.88636 33.9805 9.80779 34.0497 9.73796 34.1017C9.7205 34.119 9.70303 34.1363 9.68557 34.145C9.60701 34.1969 9.55463 34.2835 9.51098 34.3614C9.49352 34.396 9.47606 34.422 9.44987 34.4566C9.31893 34.6384 9.19671 34.8289 9.06576 35.0107C8.78641 35.409 8.49833 35.8159 8.23643 36.2314C8.00073 36.6037 7.80867 37.0192 7.62535 37.4088L7.59043 37.4781C7.53805 37.582 7.63408 37.7898 7.67773 37.8244C7.72138 37.8677 7.77376 37.885 7.82613 37.885ZM9.30147 36.0496C10.4451 36.1881 11.5014 36.318 12.6275 36.4479C12.3482 37.1145 11.9379 37.7119 11.5014 38.3438C11.3617 38.5516 11.222 38.7594 11.0736 38.9672C10.4713 37.9716 9.90382 37.0452 9.30147 36.0496Z" fill="black"/>
<path d="M29.9131 13.2719C29.983 13.2719 30.0354 13.2459 30.0877 13.2286L30.1227 13.2113C30.3322 13.1247 30.533 13.0208 30.725 12.9256C30.8734 12.8476 31.0218 12.7697 31.1702 12.7005C31.3099 12.6399 31.467 12.6139 31.5543 12.6399C32.0956 12.8044 32.5583 12.9775 32.9948 13.1593C33.2305 13.2546 33.4662 13.3758 33.6931 13.4796C34.0685 13.6615 34.4526 13.8433 34.8542 13.9731C35.57 14.2069 36.0502 14.4926 36.251 15.2285L36.2771 15.3324C36.3994 15.7479 36.3994 15.7652 35.9891 15.9903C35.8843 16.0423 35.7883 16.0942 35.6835 16.1462C35.4653 16.2587 35.247 16.3713 35.0375 16.5011L35.0201 16.5098C34.959 16.5444 34.8629 16.605 34.8367 16.7089C34.828 16.7695 34.8367 16.8301 34.8804 16.8907C34.9502 17.0032 35.0288 17.0552 35.1423 17.0552C35.1685 17.0552 35.2034 17.0552 35.2296 17.0465C35.247 17.0465 35.2732 17.0379 35.2907 17.0379C35.4042 17.0379 35.5177 16.9686 35.6137 16.908L35.9629 16.7002C36.8009 16.2154 37.6739 15.7133 38.5207 15.1938C38.6691 15.0986 38.7564 15.0034 38.7826 14.8995C38.8001 14.8302 38.7826 14.7523 38.7389 14.683C38.6691 14.5878 38.5818 14.5359 38.4858 14.5359C38.3985 14.5359 38.3199 14.5792 38.2501 14.6051C38.2326 14.6138 38.2152 14.6224 38.1977 14.6311C38.0318 14.7004 37.866 14.7956 37.7088 14.8822C37.5691 14.9601 37.4207 15.0467 37.2811 15.1073C37.2549 15.1159 37.2287 15.1332 37.2025 15.1505C37.1589 15.1765 37.1152 15.2111 37.0716 15.2111C37.0366 15.2111 37.0017 15.1765 36.9668 15.0899C36.67 14.6224 36.3819 14.0684 36.5129 13.4364C36.6176 12.9429 36.7311 12.4408 36.8533 11.9473C37.0104 11.2806 37.1763 10.588 37.2985 9.9041C37.3771 9.46257 37.5866 9.20284 38.0144 9.02969C38.285 8.91715 38.5382 8.78729 38.7564 8.64011C39.0183 8.46696 38.9746 8.31978 38.9397 8.25918C38.9048 8.1726 38.8437 8.06006 38.7215 8.06006C38.6866 8.06006 38.6429 8.06871 38.6167 8.07737C38.5905 8.08603 38.5643 8.09469 38.5294 8.09469H38.5032C38.4421 8.09469 38.3897 8.12932 38.3374 8.15529C38.3199 8.16395 38.3112 8.1726 38.3025 8.1726L37.735 8.4583C36.9144 8.87386 36.0764 9.30674 35.2558 9.74827C35.1248 9.81753 34.959 9.93873 34.9153 10.0773C34.8978 10.1379 34.9066 10.1985 34.9415 10.2591C35.0201 10.3803 35.0986 10.4409 35.2034 10.4409C35.2907 10.4409 35.378 10.3889 35.4478 10.3456C35.474 10.3283 35.5089 10.311 35.5351 10.2937C35.8319 10.1725 36.12 10.0166 36.3906 9.86947C36.4867 9.81753 36.5827 9.76558 36.6787 9.71364L36.7136 9.75693C36.7049 9.83484 36.6874 9.91276 36.6787 9.98202C36.6525 10.1638 36.6263 10.3456 36.5827 10.5188C36.4867 10.8997 36.3819 11.2806 36.2859 11.6616C36.1724 12.0685 36.0589 12.4927 35.9541 12.9083L35.9454 12.9342C35.8407 13.3584 35.8057 13.4883 35.6835 13.4883C35.5875 13.4883 35.4216 13.419 35.1947 13.3325C34.5312 13.0554 33.8765 12.7611 33.1781 12.4407C32.8987 12.3109 32.6194 12.1897 32.3226 12.0512C32.3837 12.0165 32.436 11.9819 32.4884 11.9559C32.6979 11.8347 32.8813 11.7308 33.0471 11.6096C33.0733 11.5923 33.0995 11.575 33.1257 11.5577C33.2479 11.4884 33.4312 11.3759 33.3527 11.1508C33.2741 10.9863 33.1519 10.9517 33.0646 10.9517C32.9424 10.9517 32.8114 11.0123 32.7503 11.0469C31.9123 11.4798 30.9956 11.9819 29.8695 12.6139C29.756 12.6745 29.6338 12.8477 29.6338 13.0208V13.0468L29.6513 13.0641C29.7124 13.2199 29.8084 13.2719 29.9131 13.2719Z" fill="black"/>
<path d="M111.501 19.3323C111.65 19.4449 111.798 19.5574 111.946 19.67C112.016 19.7219 112.077 19.7739 112.138 19.8258C112.313 19.9643 112.488 20.1028 112.68 20.2241C112.697 20.2327 112.715 20.25 112.741 20.2673C112.819 20.3193 112.907 20.3885 113.011 20.3885C113.081 20.3885 113.151 20.3539 113.203 20.302C113.265 20.25 113.291 20.1894 113.299 20.1202C113.308 19.9816 113.212 19.8345 113.125 19.7392C113.064 19.6786 113.011 19.6267 112.959 19.5921C112.889 19.5315 112.828 19.4795 112.776 19.4103C112.758 19.3843 112.732 19.3583 112.706 19.3237C112.662 19.2804 112.619 19.2284 112.619 19.1938C112.619 19.1592 112.662 19.1245 112.688 19.1072L112.706 19.0899C113.003 18.6484 113.334 18.2069 113.692 17.774C113.797 17.6528 113.884 17.6788 113.989 17.7394C114.242 17.8952 114.478 18.0943 114.705 18.2848L114.766 18.3367C115.211 18.7003 115.648 19.0639 116.084 19.4276C116.669 19.9124 117.245 20.3885 117.83 20.8734C117.996 21.0119 118.005 21.1158 117.856 21.3062C117.525 21.7478 117.245 22.146 117.001 22.5269C116.844 22.778 116.739 22.7953 116.547 22.6222L116.451 22.5443C116.163 22.2932 115.866 22.0335 115.552 21.817C115.272 21.6266 115.054 21.6179 114.958 21.7391C114.792 21.9123 114.914 22.0681 114.984 22.1547C115.002 22.172 115.01 22.1893 115.019 22.2066C115.115 22.3538 115.255 22.501 115.43 22.6395C116.285 23.2888 116.983 23.8083 117.629 24.2758C117.682 24.3104 117.787 24.3883 117.9 24.3883C117.979 24.3883 118.048 24.3537 118.11 24.3017C118.293 24.1372 118.144 23.9381 118.075 23.8429L118.057 23.8169C117.944 23.6697 117.804 23.5572 117.656 23.4446L117.586 23.384C117.411 23.2455 117.394 23.1416 117.533 22.9512C117.961 22.3798 118.389 21.7824 118.808 21.211C119 20.9426 119.192 20.6742 119.384 20.4145C119.541 20.2067 119.698 19.999 119.856 19.7912C119.943 19.6786 120.021 19.5747 120.109 19.4622C120.231 19.2977 120.336 19.2977 120.51 19.4362C120.746 19.618 120.99 19.8172 121.261 19.9643L121.305 19.9903C121.383 20.0422 121.488 20.1028 121.593 20.1028C121.671 20.1028 121.741 20.0682 121.802 20.0076C121.916 19.8431 121.855 19.6353 121.628 19.4362C120.72 18.6744 119.803 17.9558 119.105 17.4104L119.087 17.4017C119.017 17.3498 118.921 17.2718 118.808 17.2718C118.738 17.2718 118.668 17.3065 118.616 17.3671C118.424 17.5489 118.607 17.7567 118.668 17.8173C118.93 18.103 119.175 18.3454 119.428 18.5358C119.585 18.657 119.655 18.7523 119.663 18.8475C119.672 18.9427 119.611 19.0466 119.489 19.1678C119.201 19.4622 118.948 19.7825 118.712 20.0942L118.694 20.1115C118.537 20.3106 118.45 20.4232 118.38 20.4232C118.31 20.4232 118.188 20.3279 117.996 20.1634L117.123 19.4362C116.224 18.683 115.325 17.9385 114.426 17.1939C114.364 17.142 114.338 17.0987 114.33 17.0641C114.33 17.0121 114.364 16.9515 114.434 16.8823C114.775 16.4927 115.107 16.1031 115.464 15.6875L115.831 15.2547C115.857 15.272 115.883 15.2893 115.91 15.3066C116.023 15.3845 116.154 15.4884 116.303 15.5663C116.355 15.5923 116.407 15.6269 116.46 15.6616C116.599 15.7481 116.748 15.8434 116.87 15.8434C116.922 15.8434 116.966 15.826 117.001 15.8001L117.018 15.7828C117.193 15.5317 116.844 15.194 116.687 15.0555C115.971 14.4322 115.22 13.8521 114.513 13.3154L114.495 13.2981C114.417 13.2375 114.295 13.1509 114.164 13.1509C114.085 13.1509 114.007 13.1855 113.954 13.2548C113.884 13.324 113.849 13.4019 113.849 13.4712C113.858 13.6011 113.972 13.6963 114.05 13.7569C114.068 13.7742 114.085 13.7829 114.094 13.7915C114.234 13.9127 114.382 14.0253 114.53 14.1292C114.67 14.2244 114.818 14.3283 114.949 14.4495C114.967 14.4668 114.993 14.4841 115.019 14.5101C115.063 14.5447 115.159 14.6227 115.168 14.6486L115.115 14.7265C114.749 15.2547 114.295 15.9213 113.902 16.4234C113.622 16.7784 113.334 17.142 113.055 17.4883C112.767 17.8432 112.461 18.2155 112.182 18.5878C112.016 18.7956 111.946 18.8042 111.746 18.6397C111.379 18.3367 111.038 18.0857 110.698 17.8865C110.681 17.8779 110.663 17.8606 110.637 17.8432C110.558 17.7913 110.462 17.722 110.349 17.722C110.253 17.722 110.174 17.7653 110.104 17.8606C109.973 18.0424 110.2 18.3194 110.323 18.4233C110.715 18.735 111.117 19.038 111.501 19.3323Z" fill="black"/>
<path d="M129.528 37.6599C129.519 37.6426 129.502 37.6253 129.493 37.5993C129.441 37.5128 129.38 37.4002 129.223 37.4002C129.17 37.4002 129.118 37.4175 129.057 37.4435C128.978 37.4781 128.926 37.5214 128.9 37.5907C128.847 37.7119 128.908 37.8504 128.952 37.937L128.961 37.9543C129.083 38.2313 129.231 38.4911 129.371 38.7508C129.458 38.9153 129.546 39.0711 129.624 39.2356C129.729 39.4347 129.825 39.6425 129.93 39.8503C130.078 40.162 130.235 40.4736 130.401 40.7853C130.445 40.8632 130.55 41.0537 130.707 41.0537C130.742 41.0537 130.776 41.045 130.803 41.0277C131.056 40.9065 131.047 40.7853 131.012 40.6728C131.003 40.6554 131.003 40.6295 130.995 40.6122C130.977 40.4477 130.907 40.3005 130.838 40.1533L130.811 40.0927C130.768 40.0061 130.724 39.9196 130.68 39.833C130.619 39.7291 130.567 39.6165 130.523 39.504C130.497 39.4347 130.515 39.3222 130.541 39.2962C130.68 39.1663 130.873 38.9932 131.082 38.8807C132.199 38.266 133.387 37.634 134.696 36.9414C134.731 36.9241 134.766 36.9067 134.801 36.8894C134.897 36.8375 134.984 36.7855 135.106 36.7423C135.211 36.8808 135.307 37.0886 135.264 37.2357C135.168 37.6167 134.958 38.1015 134.801 38.4911L134.731 38.6469C134.26 39.781 133.745 41.0104 133.151 42.4129C133.072 42.612 132.976 42.8025 132.889 42.993C132.741 43.3219 132.584 43.6596 132.453 44.0059C132.383 44.205 132.4 44.5427 132.54 44.6725C132.61 44.7418 132.714 44.7764 132.828 44.7764C132.95 44.7764 133.081 44.7331 133.212 44.6465C133.614 44.3955 134.076 44.1358 134.661 43.8414C135.133 43.6076 135.621 43.3739 136.093 43.1488C136.556 42.9324 137.036 42.6986 137.498 42.4649C137.734 42.3437 137.839 42.3783 137.97 42.6207C138.127 42.9237 138.275 43.1401 138.441 43.3133L138.467 43.3393C138.537 43.4172 138.642 43.5297 138.79 43.5297C138.86 43.5297 138.921 43.5038 138.991 43.4518C139.14 43.3133 138.965 42.941 138.956 42.9324C138.782 42.5687 138.563 42.2051 138.345 41.8502C138.232 41.6684 138.127 41.4866 138.022 41.3134C137.97 41.2268 137.926 41.1403 137.874 41.0537C137.743 40.8199 137.621 40.5948 137.446 40.3697C137.437 40.3524 137.429 40.3438 137.411 40.3265C137.359 40.2485 137.28 40.1446 137.149 40.1446C137.097 40.1446 137.044 40.162 136.992 40.1879C136.765 40.2832 136.87 40.5775 136.931 40.7334C137.018 40.9758 137.132 41.2009 137.263 41.4086C137.35 41.5298 137.376 41.6251 137.359 41.703C137.333 41.7896 137.245 41.8675 137.071 41.9454C136.817 42.0666 136.564 42.1878 136.302 42.3004C135.787 42.5428 135.255 42.7852 134.74 43.0362C134.408 43.2007 134.076 43.3652 133.727 43.547C133.579 43.625 133.422 43.7029 133.264 43.7895C133.273 43.7635 133.282 43.7462 133.291 43.7202L133.352 43.5817C133.5 43.244 133.64 42.9064 133.788 42.5687C134.137 41.7636 134.504 40.9238 134.845 40.1014C135.246 39.1404 135.56 38.3352 135.84 37.5647C135.918 37.3483 135.971 37.0106 135.866 36.7769C135.56 36.1016 135.202 35.4609 134.801 34.7597L134.792 34.7424C134.731 34.6385 134.635 34.4653 134.46 34.4653C134.426 34.4653 134.382 34.474 134.347 34.4913C134.251 34.5259 134.19 34.5779 134.164 34.6471C134.12 34.751 134.164 34.8636 134.207 34.9588C134.216 34.9848 134.225 35.0021 134.233 35.0194C134.286 35.1666 134.356 35.3051 134.426 35.435C134.487 35.5562 134.556 35.6774 134.6 35.8072C134.687 36.0496 134.644 36.067 134.6 36.1016C134.591 36.1103 134.583 36.1103 134.565 36.1189C134.251 36.3353 133.902 36.5345 133.561 36.7163L133.465 36.7682C133.326 36.8461 133.177 36.9154 133.029 36.9933C132.854 37.0799 132.68 37.1665 132.514 37.2617C131.999 37.5474 131.492 37.8331 130.986 38.1188C130.759 38.2487 130.532 38.3785 130.305 38.5084C130.244 38.543 130.192 38.5603 130.148 38.5603C130.096 38.5603 130.017 38.543 129.93 38.3699L129.877 38.266C129.773 38.0755 129.668 37.8504 129.528 37.6599Z" fill="black"/>
<path d="M63.7057 0.909036C63.7319 0.909036 63.7494 0.909036 63.7668 0.909036C64.1247 0.952324 64.4914 0.969638 64.858 0.952323C64.9017 0.952323 64.9541 0.943667 64.9977 0.943667C65.1112 0.93501 65.2072 0.935009 65.2421 0.969639C65.2858 1.01293 65.2945 1.11682 65.2771 1.28131C65.2858 1.81807 65.312 2.34618 65.3469 2.88294C65.3993 3.8093 65.4517 4.80491 65.5215 5.80918C65.5302 5.93904 65.5128 6.02562 65.4604 6.07756C65.408 6.12951 65.3207 6.15548 65.1985 6.15548L64.989 6.14682C64.7533 6.13817 64.535 6.12951 64.2906 6.13817C64.2731 6.13817 64.2557 6.12951 64.2382 6.12951C64.212 6.12085 64.1858 6.11219 64.1509 6.11219C64.0374 6.11219 63.9763 6.21608 63.9414 6.294L63.9327 6.31131C63.889 6.50178 63.8803 6.60567 64.1335 6.72688C64.1596 6.74419 64.1946 6.76151 64.2382 6.76151C64.2731 6.76151 64.3081 6.75285 64.343 6.75285C64.3692 6.75285 64.3953 6.74419 64.4128 6.74419H64.6049C65.5913 6.73553 66.6127 6.71822 67.6254 6.69224C67.7214 6.69224 67.8261 6.60567 67.8785 6.54507C67.9222 6.49312 67.9396 6.44983 67.9396 6.4152C67.9309 6.294 67.8087 6.08622 67.6777 6.0689C67.5293 6.04293 67.346 6.06025 67.1802 6.07756C67.1365 6.08622 67.0929 6.08622 67.0579 6.09488H66.8222C66.1937 6.09488 66.15 6.07756 66.15 5.30705C66.15 5.28107 66.15 5.24644 66.1413 5.22047L66.0977 4.51055C66.0365 3.44568 65.9754 2.35484 65.9318 1.26399C65.9318 1.23802 65.9318 1.21205 65.9231 1.17742C65.9143 1.0995 65.8969 0.909036 65.9231 0.874406C66.0016 0.848433 66.15 0.82246 66.2897 0.82246C66.3945 0.82246 66.473 0.839777 66.5167 0.86575C66.6564 0.960982 66.796 1.12547 66.927 1.28997C67.0056 1.3852 67.0841 1.48043 67.1627 1.55835C67.5468 1.95659 67.9309 2.34618 68.3238 2.74442C68.7777 3.21193 69.2229 3.67078 69.6769 4.12963L69.7903 4.25083C70.4102 4.88283 71.0474 5.53214 71.6847 6.16414L71.7196 6.19877C71.7982 6.28534 71.903 6.38057 72.0426 6.38057C72.0863 6.38057 72.1299 6.37192 72.1648 6.3546H72.1736C72.2347 6.3546 72.2783 6.32863 72.2958 6.30265C72.3569 6.23339 72.3569 6.12085 72.3482 6.01696C72.3482 5.96502 72.3394 5.91307 72.3482 5.8871C72.3656 5.79186 72.3569 5.69663 72.3482 5.6014L72.0164 1.47177C72.0077 1.37654 71.9903 1.27265 71.9815 1.1601C71.9553 0.986955 71.9117 0.701256 71.9466 0.657968C72.0077 0.606023 72.0863 0.58871 72.191 0.58871C72.2696 0.58871 72.3656 0.606024 72.4442 0.614681C72.5315 0.631996 72.6275 0.640653 72.7148 0.640653C72.7323 0.640653 72.7585 0.640653 72.7759 0.640653H72.8109C72.8458 0.640653 72.8894 0.640655 72.9243 0.649312C72.9592 0.649312 72.9854 0.657968 73.0204 0.657968C73.2299 0.657968 73.2561 0.484817 73.2561 0.328982C73.2561 0.0346276 72.9854 0.0346275 72.8632 0.0346275H72.837H72.7759C72.1037 -2.50918e-06 71.4316 0 70.7681 0H70.576C70.3578 0 70.1046 0.00865538 69.8515 0.0519429C69.7729 0.0692579 69.6245 0.034628 69.5372 0.12986C69.4935 0.181805 69.4761 0.251066 69.4935 0.363613C69.5721 0.631996 69.7467 0.640655 69.8776 0.649312C70.0959 0.666627 70.3578 0.65797 70.6197 0.649312C70.707 0.649312 70.7943 0.640653 70.8816 0.640653C71.3181 0.623338 71.3181 0.675285 71.3268 0.943667C71.3268 0.978297 71.3268 1.02158 71.3355 1.06487C71.3617 1.42849 71.4054 1.7921 71.449 2.14706C71.4839 2.46739 71.5276 2.78771 71.5538 3.1167C71.5887 3.61883 71.6061 4.12963 71.6236 4.6231C71.6323 4.83088 71.6323 5.03866 71.6411 5.24644C71.58 5.17718 71.5188 5.10792 71.4577 5.03866C71.3093 4.86551 71.1522 4.69236 70.9863 4.52787L70.4276 3.95648C69.3277 2.831 68.2015 1.67089 67.0754 0.54542C66.9095 0.380927 66.6651 0.207778 66.4381 0.207778C65.5477 0.225093 64.6485 0.285697 63.7755 0.354957C63.7668 0.354957 63.7494 0.354957 63.7406 0.354957H63.6708C63.5835 0.354957 63.3652 0.354955 63.3652 0.606022C63.3652 0.89172 63.5835 0.900379 63.7057 0.909036Z" fill="black"/>
<path d="M143.767 58.3774C143.671 58.3688 143.566 58.4034 143.461 58.438C143.409 58.4553 143.356 58.4727 143.313 58.4813C143.269 58.49 143.217 58.4986 143.164 58.5159C143.068 58.5333 142.981 58.5592 142.902 58.5679C142.911 58.5506 142.92 58.5419 142.928 58.5246C142.955 58.49 142.972 58.464 142.981 58.4467C143.147 58.2216 143.243 58.0831 143.269 58.0052L143.304 57.9186C143.444 57.555 143.583 57.174 143.583 56.8018C143.574 56.239 143.54 55.962 143.348 55.4166C142.92 54.2045 141.951 53.382 140.537 53.0357C139.664 52.828 138.791 53.0098 137.926 53.5812C137.298 53.9967 136.774 54.8278 136.669 55.5637C136.503 56.7758 136.564 57.6848 137.42 58.7497C137.551 58.9228 137.996 59.451 138.546 59.728C138.529 59.728 138.511 59.7366 138.494 59.7366C138.389 59.754 138.267 59.7713 138.118 59.7973L138.066 59.8059C137.944 59.8232 137.804 59.8405 137.734 59.9444C137.682 60.0137 137.664 60.1176 137.691 60.2561C137.734 60.4033 137.839 60.4725 138.014 60.4725C138.083 60.4725 138.153 60.4639 138.206 60.4552L138.258 60.4466C138.572 60.4033 138.887 60.3427 139.192 60.2821C139.393 60.2388 139.585 60.2042 139.786 60.1695C140.013 60.1262 140.187 60.031 140.266 59.8752C140.353 59.728 140.353 59.5375 140.275 59.3297L140.257 59.2951C140.135 58.9748 140.013 58.6458 139.899 58.3168C139.829 58.1004 139.76 57.8753 139.69 57.6589C139.585 57.3039 139.472 56.9403 139.341 56.5853C139.306 56.4987 139.245 56.3083 139.052 56.3083C139.026 56.3083 138.991 56.3169 138.965 56.3169C138.878 56.3343 138.817 56.3689 138.782 56.4208C138.721 56.5161 138.747 56.6286 138.764 56.7065L138.773 56.7498C138.808 56.9143 138.86 57.0788 138.922 57.2433C138.956 57.3385 138.991 57.4338 139.018 57.5376C139.149 57.9705 139.271 58.4034 139.402 58.8536L139.568 59.4336C139.026 59.3817 138.476 59.0354 138.162 58.6978C137.525 58.0311 137.237 57.2087 137.237 56.1178C137.237 54.7499 138.319 53.6677 139.698 53.6677H139.725C140.764 53.6677 141.61 54.092 142.3 54.9577C143.094 55.9533 143.129 56.9749 142.431 58.1004C142.213 58.438 142.195 58.741 142.37 58.9748C142.457 59.096 142.78 59.1739 142.928 59.1739C142.946 59.1739 142.963 59.1739 142.972 59.1739C143.269 59.1306 143.548 59.0354 143.81 58.9315C143.915 58.8882 144.028 58.6978 143.994 58.5939C143.959 58.464 143.871 58.3861 143.767 58.3774Z" fill="black"/>
<path d="M47.3637 10.8301C47.451 10.8301 47.5383 10.8042 47.5907 10.7955H47.6081C48.5422 10.5531 49.5461 10.2674 50.6985 9.92975L50.7334 9.92109C50.8032 9.90377 50.908 9.87781 50.9516 9.79123C50.9866 9.73929 50.9866 9.67002 50.9604 9.60076C50.9516 9.51419 50.8993 9.36701 50.6548 9.36701C50.5937 9.36701 50.5239 9.37567 50.4628 9.38433C50.166 9.42761 49.9564 9.4709 49.7295 9.52284C49.6334 9.54882 49.5287 9.56613 49.4589 9.56613C49.3977 9.56613 49.3803 9.54882 49.3715 9.54016C49.3541 9.52285 49.3366 9.46224 49.3628 9.31507C49.4239 8.94279 49.52 8.53589 49.6509 8.07704C49.6684 8.00778 49.7906 7.92121 49.8866 7.89524C50.2096 7.80866 50.5413 7.73075 50.8643 7.65283C51.3881 7.53162 51.9381 7.40176 52.4619 7.23727C52.6278 7.18532 52.7587 7.13338 52.8722 7.09009C53.0293 7.02949 53.1515 6.97754 53.2563 6.97754C53.4745 6.97754 53.719 7.17666 54.1991 7.76537C54.2078 7.78269 54.2253 7.8 54.234 7.81732C54.2428 7.82597 54.2428 7.83464 54.2602 7.84329C54.3213 7.91255 54.3562 7.97315 54.3475 8.00778C54.3388 8.05107 54.2777 8.0857 54.1729 8.12033C54.1031 8.13765 54.0245 8.16362 53.9547 8.18094C53.7364 8.24154 53.5095 8.30214 53.2912 8.39737C53.2738 8.40603 53.2563 8.41469 53.2388 8.41469C53.1166 8.45797 52.9158 8.53589 52.9595 8.78696L52.9682 8.81293C53.0555 8.96011 53.1603 9.02937 53.2912 9.02937C53.3523 9.02937 53.4134 9.01205 53.4571 9.0034L53.4745 8.99474C54.461 8.72635 55.4998 8.41469 56.5474 8.07704C56.626 8.05107 56.8704 7.96449 56.9228 7.81732C56.9403 7.76537 56.9315 7.71343 56.9053 7.67014C56.8617 7.51431 56.7569 7.43639 56.6173 7.43639C56.5561 7.43639 56.495 7.44505 56.4427 7.46236C56.4252 7.47102 56.399 7.47102 56.3815 7.47102C56.1982 7.49699 56.0236 7.55759 55.8578 7.60954C55.7181 7.65283 55.5697 7.70477 55.4213 7.73074C55.2903 7.75671 55.1157 7.71343 55.0546 7.64417C54.4086 7.02083 53.8325 6.45809 53.2738 5.86073C52.8111 5.35859 52.3746 4.83914 51.9119 4.30237C51.7286 4.09459 51.554 3.87816 51.3707 3.66172C51.4492 3.63575 51.5278 3.60112 51.6064 3.57514C51.8945 3.47125 52.1389 3.38468 52.3833 3.28079L52.4182 3.26348C52.5143 3.22019 52.6976 3.15093 52.6539 2.94315C52.6452 2.74403 52.4881 2.65745 52.2 2.72671C50.9429 3.0557 49.8168 3.37602 48.7605 3.68769L48.7081 3.70501C48.5335 3.75695 48.2192 3.84353 48.2891 4.11191C48.3152 4.19849 48.3851 4.31103 48.551 4.31103C48.6208 4.31103 48.6994 4.29372 48.7692 4.2764C48.8128 4.26775 48.8652 4.25043 48.9001 4.25043C49.1184 4.23312 49.3279 4.18117 49.5461 4.13788C49.616 4.12057 49.6946 4.10325 49.7644 4.0946C49.7644 4.12057 49.7644 4.13788 49.7644 4.1552C49.7644 4.22446 49.7557 4.26775 49.7469 4.31103C49.4414 5.76549 49.1446 7.21995 48.8652 8.63112C48.8216 8.84756 48.7954 9.02937 48.7692 9.17655C48.6557 9.87781 48.6557 9.87781 47.6431 10.1635L47.4859 10.2068C47.3986 10.2154 47.2328 10.2328 47.1542 10.3453C47.1105 10.4059 47.1018 10.4838 47.1193 10.5791C47.1193 10.6483 47.1367 10.7003 47.1716 10.7436C47.224 10.8042 47.2851 10.8301 47.3637 10.8301ZM49.8517 7.28056C49.8779 7.15935 49.8953 7.03814 49.9215 6.92559C49.9739 6.65721 50.0263 6.40615 50.0699 6.15508C50.1136 5.89535 50.1572 5.64429 50.2009 5.38456C50.2707 5.00363 50.3318 4.60539 50.4104 4.2158L50.4191 4.17251C50.4366 4.06862 50.4715 3.90413 50.5588 3.87816C50.5675 3.8695 50.585 3.8695 50.5937 3.8695C50.6548 3.8695 50.7159 3.93876 50.7683 4.00802C50.7858 4.02533 50.8032 4.04265 50.812 4.05997C51.4929 4.81317 52.1825 5.59234 52.7849 6.27628C52.8198 6.31957 52.8547 6.36286 52.8984 6.43212C52.9158 6.44943 52.9246 6.47541 52.942 6.50138C52.6365 6.58795 52.3397 6.67453 52.0603 6.76976C51.327 7.01217 50.6286 7.22861 49.8517 7.28056Z" fill="black"/>
<path d="M82.5451 0.857172C82.7459 0.952405 82.9729 0.987037 83.165 1.02167C83.4967 1.06495 83.7586 1.19481 83.8197 1.22944C84.2562 2.01728 84.9109 3.16007 85.3736 3.95656C85.4522 4.08642 85.5307 4.20762 85.618 4.33749C86.0021 4.9262 86.3688 5.48027 86.1069 6.24213C86.0632 6.36334 86.0458 6.4932 86.0196 6.62307C86.0021 6.73561 85.9847 6.84816 85.9498 6.96071C85.8712 7.21177 85.8101 7.25507 85.7141 7.25507C85.6704 7.25507 85.618 7.24641 85.5569 7.22909C85.2514 7.14252 84.8935 7.04728 84.5355 6.99534L84.5006 6.98668C84.4482 6.97802 84.3784 6.96937 84.3173 6.96937C84.1252 6.96937 84.0554 7.0646 84.0379 7.14251C83.9943 7.22909 83.9943 7.30701 84.0205 7.36761C84.0641 7.45419 84.1602 7.48016 84.2387 7.50613C84.2736 7.51479 84.3086 7.52345 84.326 7.53211C84.5006 7.62734 84.7101 7.70525 84.9284 7.7572C85.941 7.97363 86.7791 8.14679 87.5735 8.30262L87.5997 8.31128C87.6521 8.31994 87.7219 8.33725 87.7917 8.33725C87.9663 8.33725 88.0274 8.24202 88.0449 8.1641C88.0711 8.06021 88.0711 7.98229 88.0362 7.92169C87.9838 7.84377 87.8965 7.8178 87.8179 7.80914C87.7917 7.80049 87.7568 7.80049 87.7394 7.78317C87.6084 7.73123 87.4687 7.68794 87.3291 7.65331C87.1981 7.61868 87.0672 7.58405 86.945 7.54076L86.91 7.53211C86.5958 7.43687 86.5347 7.4109 86.6132 7.13386C86.6656 6.93474 86.7005 6.72695 86.7267 6.52783C86.7616 6.30274 86.8053 6.06033 86.8664 5.84389C86.9188 5.66208 87.041 5.41967 87.2243 5.29847C88.1846 4.7011 89.171 4.12971 90.14 3.56697C90.2885 3.48039 90.4107 3.40248 90.5154 3.33322C91.013 3.02155 91.1091 2.93497 91.9209 3.22067C91.982 3.24664 92.0693 3.26396 92.1566 3.26396C92.3574 3.26396 92.5058 3.16873 92.5495 3.01289C92.5669 2.97826 92.5669 2.94363 92.5495 2.909C92.4884 2.77048 92.1915 2.64928 92.0955 2.6233C91.3884 2.43284 90.6638 2.277 90.0353 2.13848C89.4853 2.01728 88.9528 1.91339 88.4465 1.83547C88.4116 1.82681 88.3766 1.82681 88.333 1.82681C88.1584 1.82681 88.0973 1.9307 88.0711 2.01728C87.9925 2.24237 88.202 2.32895 88.2893 2.36358L88.3068 2.37223C88.525 2.45881 88.7607 2.51941 88.979 2.57136L89.0576 2.58867C89.2933 2.64927 89.529 2.70122 89.7559 2.76182L90.0353 2.83108C90.0615 2.83974 90.1051 2.8484 90.14 2.8484C90.1226 2.85705 90.1051 2.86571 90.0789 2.87437C89.9916 2.91766 89.9131 2.95229 89.8258 2.99558C89.6424 3.08215 89.4504 3.16872 89.2758 3.27261C88.5949 3.6622 87.8703 4.09508 86.9886 4.62319C86.7704 4.75305 86.6743 4.72708 86.5172 4.46735C86.3251 4.13837 86.1156 3.80938 85.9148 3.49771C85.7315 3.22067 85.5482 2.93497 85.3823 2.64927C85.2077 2.37223 85.0506 2.06922 84.8935 1.75755C84.8324 1.63635 84.7625 1.50649 84.6927 1.37662C84.7974 1.38528 84.8935 1.40259 84.9808 1.41125C85.2427 1.44588 85.4609 1.48051 85.6879 1.48051C85.7141 1.48051 85.7402 1.48051 85.7664 1.48917C85.8101 1.49783 85.8625 1.49783 85.9148 1.49783C85.9759 1.49783 86.1593 1.49783 86.2204 1.31602C86.2378 1.25542 86.2378 1.18616 86.2029 1.12556C86.1156 0.978378 85.8887 0.891804 85.7577 0.865832C85.0942 0.718654 84.4133 0.597449 83.7499 0.476244C83.5316 0.432956 83.3134 0.398327 83.1039 0.355039C83.0602 0.346382 83.0166 0.337723 82.9729 0.320408C82.8769 0.294436 82.7634 0.259807 82.6761 0.277122H82.6325C82.5277 0.285779 82.4055 0.294435 82.3007 0.4849L82.292 0.51953C82.3007 0.72731 82.4753 0.822542 82.5451 0.857172Z" fill="black"/>
<path d="M99.2272 12.2072C99.2621 12.2245 99.2883 12.2504 99.3233 12.2764C99.4367 12.363 99.5851 12.4409 99.6899 12.4929L100.118 12.692C100.93 13.0643 101.768 13.4452 102.597 13.8001C102.658 13.8261 102.745 13.8607 102.833 13.8607C102.946 13.8607 103.033 13.8088 103.086 13.7136C103.147 13.6097 103.208 13.4106 102.859 13.1855C102.588 13.0123 102.274 12.8565 101.916 12.7353C101.811 12.7006 101.75 12.6573 101.733 12.6141C101.715 12.5708 101.724 12.5015 101.768 12.3976C102.335 11.1336 102.894 9.86098 103.47 8.57967L103.802 7.83512C103.828 7.84378 103.854 7.8611 103.88 7.86975C103.985 7.91304 104.072 7.94767 104.168 7.99962C104.456 8.1468 104.753 8.28532 105.041 8.43249C105.329 8.57967 105.626 8.72684 105.923 8.87402C106.639 9.16838 106.639 9.16838 106.534 9.50602C106.499 9.60991 106.464 9.73112 106.429 9.90426C106.429 9.91292 106.421 9.93024 106.421 9.94756C106.386 10.0601 106.333 10.2765 106.682 10.4064C106.709 10.4064 106.735 10.4151 106.752 10.4151C106.962 10.4151 107.014 10.2592 107.049 10.1553C107.058 10.1207 107.075 10.0861 107.084 10.0601C107.145 9.96487 107.171 9.85232 107.198 9.74843C107.215 9.68783 107.232 9.62723 107.25 9.56662C107.468 8.97791 107.468 8.91731 106.892 8.63161C106.325 8.35457 105.757 8.08619 105.19 7.81781C104.352 7.41956 103.479 6.99535 102.623 6.57979C102.361 6.44993 102.099 6.30274 101.846 6.15557C101.514 5.97376 101.183 5.7833 100.834 5.61881C100.711 5.56686 100.528 5.53223 100.362 5.53223C100.231 5.53223 100.065 5.54955 99.9693 5.64478C99.7336 5.87853 99.6026 6.20751 99.4629 6.52784C99.4367 6.58844 99.4106 6.64904 99.3844 6.70965C99.3145 6.86548 99.3582 7.01266 99.5066 7.09924C99.5502 7.12521 99.6201 7.15984 99.6986 7.15984C99.7685 7.15984 99.8558 7.13387 99.9169 7.02998C100.057 6.87414 100.188 6.68368 100.292 6.4759C100.388 6.26812 100.484 6.24214 100.554 6.24214C100.624 6.24214 100.703 6.26812 100.799 6.32006L100.825 6.32872C101.462 6.68368 102.117 7.05595 102.78 7.37628C102.876 7.42822 103.121 7.54077 103.182 7.59271L102.99 8.02559C102.597 8.91731 102.099 10.0168 101.715 10.8393C101.541 11.2115 101.366 11.5665 101.157 12.0167C101.095 12.2504 101.017 12.2764 100.956 12.2764C100.903 12.2764 100.825 12.2504 100.72 12.1985C100.38 12.0254 100.013 11.8435 99.6201 11.6964L99.5764 11.6791C99.5066 11.6531 99.428 11.6185 99.3407 11.6185C99.2447 11.6185 99.1574 11.6617 99.0875 11.757C98.9479 12.0254 99.0963 12.1206 99.2272 12.2072Z" fill="black"/>
<path d="M122.963 29.9288C123.033 30.0068 123.103 30.0933 123.164 30.1713C123.173 30.1972 123.208 30.2232 123.277 30.2925C123.295 30.3098 123.312 30.3271 123.33 30.3444L123.356 30.379C123.592 30.6474 123.793 30.8812 123.985 31.1149C124.238 31.4179 124.482 31.7123 124.805 32.0586C124.823 32.0759 124.84 32.0932 124.858 32.1192C124.927 32.2058 125.015 32.3183 125.146 32.3183C125.198 32.3183 125.259 32.301 125.32 32.2577C125.469 32.1365 125.469 31.9287 125.312 31.6863C125.198 31.5045 125.067 31.3573 124.927 31.2101C124.823 31.0976 124.718 30.9764 124.587 30.8119C124.473 30.708 124.412 30.6214 124.412 30.5349C124.412 30.4569 124.465 30.3704 124.578 30.2665L125.006 29.8856C125.992 29.0111 127.005 28.1021 128 27.2017C128.088 27.1238 128.166 27.0805 128.227 27.0805C128.306 27.0805 128.384 27.1411 128.498 27.2883C128.786 27.6779 129.048 27.9809 129.31 28.2406L129.318 28.2493C129.38 28.3099 129.476 28.4051 129.607 28.4051C129.685 28.4051 129.755 28.3705 129.825 28.3099C129.964 28.1714 129.886 27.9636 129.772 27.8251C129.083 26.9853 128.323 26.1022 127.468 25.1153L127.45 25.098C127.389 25.0287 127.302 24.9248 127.171 24.9248C127.11 24.9248 127.049 24.9508 126.996 24.9854C126.935 25.02 126.9 25.0633 126.892 25.1153C126.865 25.2278 126.944 25.3577 127.005 25.4443L127.023 25.4789C127.162 25.6953 127.319 25.9031 127.503 26.1022C127.651 26.2667 127.712 26.3706 127.703 26.4658C127.695 26.5524 127.625 26.6563 127.459 26.7948C126.874 27.297 126.281 27.7991 125.696 28.3012C125.137 28.7774 124.587 29.2622 124.037 29.7384C123.95 29.8163 123.88 29.8509 123.827 29.8509C123.784 29.8509 123.723 29.8336 123.618 29.6691C123.435 29.3921 123.199 29.1064 122.893 28.7947C122.824 28.7168 122.71 28.6042 122.562 28.6042C122.501 28.6042 122.448 28.6216 122.387 28.6562C122.125 28.8553 122.291 29.0977 122.37 29.2016C122.57 29.4613 122.771 29.7037 122.963 29.9288Z" fill="black"/>
<path d="M108.429 129.767C108.42 129.733 108.411 129.689 108.403 129.655C108.35 129.386 108.289 129.092 108.114 129.057C108.088 129.04 108.053 129.04 108.027 129.04C107.931 129.04 107.783 129.075 107.757 129.075C107.468 129.153 107.573 129.525 107.634 129.767C107.652 129.819 107.66 129.871 107.669 129.906C107.809 130.59 107.966 131.274 108.123 131.94C108.176 132.148 108.219 132.356 108.263 132.555C108.149 132.512 107.879 132.339 107.757 132.226C107.538 132.018 107.32 131.81 107.102 131.603C106.753 131.265 106.395 130.919 106.028 130.59C105.888 130.46 105.731 130.339 105.557 130.339C105.496 130.339 105.443 130.356 105.391 130.382C105.103 130.52 105.155 130.746 105.19 130.91C105.199 130.953 105.207 130.997 105.216 131.031C105.234 131.23 105.295 131.43 105.356 131.62C105.382 131.707 105.408 131.793 105.434 131.871C105.609 132.529 105.784 133.196 105.958 133.871C105.949 133.871 105.941 133.862 105.923 133.854L105.801 133.758C105.635 133.62 105.469 133.481 105.312 133.343C105.146 133.204 104.98 133.057 104.823 132.91C104.422 132.555 104.003 132.191 103.575 131.836C103.496 131.767 103.374 131.672 103.234 131.672C103.156 131.672 103.077 131.707 102.999 131.776C102.807 132.01 102.946 132.174 103.042 132.278C103.06 132.295 103.077 132.321 103.095 132.339C103.269 132.572 103.496 132.771 103.715 132.962C104.518 133.629 105.347 134.321 106.194 134.996C106.264 135.057 106.386 135.083 106.517 135.083C106.613 135.083 106.709 135.066 106.77 135.031C106.91 134.962 106.936 134.659 106.91 134.52C106.875 134.278 106.805 134.044 106.735 133.81C106.718 133.732 106.691 133.654 106.674 133.577C106.526 133.014 106.368 132.46 106.211 131.897L106.176 131.767C106.176 131.758 106.168 131.741 106.168 131.733C106.176 131.75 106.194 131.767 106.211 131.784C106.246 131.819 106.281 131.854 106.316 131.888C106.386 131.958 106.456 132.027 106.534 132.096C106.665 132.209 106.796 132.33 106.927 132.442C107.311 132.789 107.704 133.135 108.123 133.455C108.263 133.568 108.507 133.698 108.708 133.698C108.778 133.698 108.848 133.68 108.891 133.654C109.197 133.507 109.11 132.962 109.092 132.849C108.909 131.854 108.682 130.858 108.429 129.767Z" fill="black"/>
<path d="M139.524 94.0897C139.349 94.1157 139.166 94.1416 138.983 94.1676C138.52 94.2369 138.049 94.2975 137.63 94.384C137.603 94.0637 137.534 93.9079 137.411 93.7088C137.158 93.3192 136.696 93.0508 136.294 93.0508C136.015 93.0508 135.77 93.172 135.596 93.4057C135.316 93.7694 135.168 94.2282 135.019 94.6697L134.976 94.7996C134.923 94.9468 134.932 95.0853 134.993 95.1978C135.063 95.3277 135.203 95.4229 135.395 95.4835C135.596 95.5442 135.796 95.6221 135.988 95.6913C136.128 95.7433 136.277 95.8039 136.425 95.8558C137.202 96.1155 138.014 96.3753 138.808 96.609C138.843 96.6177 138.895 96.6263 138.948 96.6263C139.122 96.6263 139.227 96.5224 139.245 96.3666C139.288 96.2541 139.288 96.1761 139.262 96.1155C139.227 96.0463 139.149 96.0203 139.088 96.003C139.061 95.9943 139.035 95.9857 139.018 95.977C138.922 95.9078 138.808 95.8904 138.695 95.8645C138.66 95.8558 138.625 95.8472 138.599 95.8385C138.407 95.7952 138.215 95.726 138.031 95.6653C137.857 95.6047 137.673 95.5441 137.49 95.5009C137.525 95.1372 137.865 95.0247 138.075 94.9901C138.363 94.9381 138.616 94.9121 138.869 94.8775C139.14 94.8429 139.419 94.8083 139.725 94.7563C139.891 94.7303 139.995 94.6697 140.022 94.5745C140.048 94.4879 140.022 94.3927 139.926 94.2888C139.821 94.1936 139.707 94.0724 139.524 94.0897ZM136.975 94.5312C137.001 94.7823 136.949 94.9987 136.835 95.1026C136.792 95.1372 136.757 95.1546 136.696 95.1546C136.617 95.1546 136.521 95.1286 136.39 95.094C136.346 95.0853 136.294 95.068 136.233 95.0507C136.128 94.9814 136.015 94.9295 135.919 94.8862C135.831 94.8429 135.709 94.7823 135.7 94.7736C135.727 94.7044 135.744 94.6351 135.77 94.5572C135.866 94.2195 135.98 93.8386 136.294 93.752C136.39 93.7607 136.512 93.7953 136.643 93.8733C136.8 93.9598 136.94 94.2282 136.975 94.5312Z" fill="black"/>
<path d="M134.958 105.154C134.923 105.128 134.888 105.111 134.845 105.111C134.714 105.111 134.644 105.258 134.583 105.379C134.574 105.405 134.557 105.422 134.548 105.44C134.487 105.544 134.408 105.691 134.33 105.847C134.225 106.054 134.111 106.271 134.024 106.401C134.007 106.427 133.998 106.427 133.989 106.427C133.972 106.427 133.945 106.418 133.919 106.409C133.884 106.401 133.858 106.383 133.815 106.375C133.361 106.271 133.116 106.141 133.046 105.968C132.976 105.795 133.046 105.552 133.273 105.163C133.273 105.154 133.282 105.154 133.291 105.145C133.308 105.128 133.326 105.102 133.334 105.067C133.343 105.041 133.361 105.007 133.378 104.981C133.422 104.912 133.465 104.825 133.43 104.738C133.404 104.669 133.326 104.609 133.195 104.557C133.125 104.505 133.055 104.487 132.994 104.487C132.872 104.487 132.811 104.591 132.767 104.661C132.758 104.678 132.75 104.695 132.732 104.712C132.653 104.816 132.566 104.964 132.479 105.111C132.4 105.249 132.313 105.396 132.243 105.492C132.208 105.535 132.147 105.518 132.06 105.474C131.955 105.414 131.842 105.362 131.737 105.301C131.562 105.215 131.379 105.119 131.222 105.007C131.248 104.964 131.292 104.894 131.318 104.86L131.335 104.825C131.396 104.73 131.466 104.635 131.527 104.531C131.684 104.297 131.85 104.054 131.99 103.795C132.034 103.708 132.112 103.561 132.069 103.431C132.042 103.362 131.99 103.319 131.92 103.284C131.815 103.232 131.728 103.206 131.65 103.206C131.51 103.206 131.449 103.301 131.423 103.362C131.414 103.371 131.414 103.379 131.405 103.388C131.091 103.864 130.794 104.366 130.515 104.86L130.427 105.007C130.366 105.119 130.34 105.215 130.375 105.301C130.401 105.396 130.489 105.466 130.619 105.535C130.969 105.699 131.213 105.829 131.492 105.976C131.623 106.046 131.763 106.124 131.92 106.202L131.973 106.228V106.219C131.981 106.228 131.999 106.228 132.016 106.236C132.086 106.262 132.112 106.279 132.121 106.279C132.269 106.357 132.418 106.435 132.566 106.522C132.924 106.721 133.299 106.92 133.692 107.085C133.788 107.128 133.928 107.145 134.068 107.145C134.181 107.145 134.382 107.128 134.461 107.024C134.784 106.6 135.019 106.106 135.22 105.656C135.246 105.596 135.29 105.5 135.246 105.396C135.211 105.301 135.115 105.223 134.958 105.154Z" fill="black"/>
<path d="M117.08 127.196C116.957 127.196 116.826 127.231 116.748 127.274L116.73 127.283C116.355 127.508 116.146 127.638 115.988 127.638C115.805 127.638 115.665 127.447 115.342 127.032L115.334 127.014C115.246 126.91 115.22 126.841 115.229 126.789C115.238 126.746 115.29 126.703 115.386 126.659C115.622 126.555 115.849 126.408 115.997 126.278C116.32 125.993 116.303 125.846 116.102 125.577C116.076 125.534 116.023 125.534 116.006 125.534C115.884 125.534 115.657 125.62 115.543 125.698L115.526 125.716C115.211 125.949 115.046 126.071 114.915 126.071C114.775 126.071 114.635 125.906 114.365 125.586C114.356 125.569 114.339 125.551 114.33 125.543C114.234 125.447 114.181 125.369 114.19 125.326C114.199 125.266 114.286 125.205 114.391 125.144C114.635 124.997 114.915 124.807 115.159 124.573C115.255 124.478 115.264 124.227 115.194 124.105C115.142 124.01 114.95 123.941 114.845 123.941C114.81 123.941 114.775 123.95 114.758 123.967C114.216 124.382 113.797 124.746 113.431 125.101C113.326 125.205 113.361 125.534 113.457 125.655C113.562 125.794 113.658 125.915 113.745 126.027C113.937 126.278 114.103 126.504 114.356 126.798C114.365 126.824 114.4 126.858 114.461 126.919C114.478 126.936 114.496 126.954 114.513 126.971L114.627 127.136C114.714 127.265 114.81 127.395 114.897 127.525C114.941 127.577 114.976 127.638 115.011 127.69C115.098 127.819 115.194 127.958 115.299 128.079C115.552 128.374 115.735 128.547 115.971 128.547C116.154 128.547 116.346 128.443 116.6 128.261C116.669 128.209 116.748 128.157 116.818 128.114C116.931 128.036 117.045 127.949 117.167 127.871C117.307 127.776 117.394 127.655 117.403 127.534C117.411 127.43 117.376 127.326 117.298 127.239C117.246 127.205 117.149 127.196 117.08 127.196Z" fill="black"/>
<path d="M99.0698 137.975C99.0087 137.975 98.9651 138.001 98.9214 138.026C98.8953 138.035 98.8778 138.052 98.8603 138.052C98.7381 138.078 98.6333 138.13 98.5286 138.182C98.4326 138.226 98.3365 138.269 98.2405 138.295C98.2143 138.304 98.1794 138.304 98.1445 138.304C98.0397 138.304 97.9699 138.278 97.9612 138.269C97.804 137.975 97.6294 137.637 97.577 137.317C97.5945 137.273 97.7866 137.178 97.9 137.117C97.9873 137.074 98.0659 137.031 98.1358 136.988C98.1445 136.988 98.1619 136.979 98.1707 136.962C98.4238 136.823 98.3453 136.65 98.3016 136.563L98.2842 136.529C98.258 136.459 98.1969 136.304 98.0485 136.304C97.9961 136.304 97.935 136.33 97.8739 136.373C97.7866 136.39 97.708 136.425 97.6294 136.468C97.5596 136.503 97.4898 136.537 97.4199 136.546C97.3152 136.563 97.1668 136.546 97.1318 136.494C97.0009 136.347 96.9049 136.165 96.8088 136.001L96.739 135.879C96.6953 135.793 96.6779 135.724 96.6953 135.672C96.7128 135.62 96.7652 135.568 96.8438 135.533C96.9049 135.507 96.966 135.481 97.0271 135.455C97.2017 135.386 97.3763 135.308 97.5247 135.195C97.5421 135.178 97.5683 135.161 97.5945 135.144C97.7167 135.066 97.935 134.927 97.7866 134.65C97.708 134.529 97.6207 134.468 97.5159 134.468C97.4461 134.468 97.3763 134.494 97.3239 134.52C97.3064 134.529 97.289 134.538 97.2715 134.546C96.9485 134.659 96.6517 134.815 96.32 134.996C95.8747 135.239 95.8049 135.49 96.0493 135.957C96.2239 136.286 96.3462 136.52 96.4771 136.78C96.5557 136.927 96.6342 137.083 96.7303 137.265C96.739 137.291 96.7564 137.334 96.7826 137.386C96.7914 137.412 96.8001 137.429 96.8088 137.446L96.835 137.507C96.8874 137.628 96.9485 137.749 97.0009 137.871C97.1318 138.165 97.2715 138.468 97.4199 138.754C97.4985 138.91 97.6382 139.195 97.9262 139.195C97.9873 139.195 98.0485 139.187 98.1096 139.161C98.5111 139.013 98.8429 138.858 99.1397 138.676L99.1571 138.667C99.2619 138.607 99.4452 138.494 99.323 138.165C99.2357 138.035 99.1571 137.975 99.0698 137.975Z" fill="black"/>
<path d="M142.117 84.2549C142.099 84.2463 142.091 84.2463 142.073 84.2376C141.907 84.1684 141.733 84.1424 141.567 84.1078C141.48 84.0905 141.392 84.0731 141.314 84.0558C141.174 84.0212 141.026 83.9952 140.886 83.9692C140.554 83.9086 140.223 83.848 139.952 83.7009C139.611 83.5104 139.315 83.2074 139.027 82.913C138.939 82.8265 138.852 82.7312 138.765 82.6446C138.739 82.6187 138.704 82.584 138.677 82.5581C138.555 82.4282 138.433 82.2983 138.276 82.2983C138.189 82.2983 138.11 82.3416 138.04 82.4195C137.97 82.4888 137.944 82.5667 137.944 82.6446C137.953 82.7918 138.093 82.9217 138.223 83.0256C138.258 83.0516 138.285 83.0775 138.311 83.1035C138.564 83.3459 138.826 83.571 139.105 83.8221L139.341 84.0298C138.817 84.3155 138.354 84.5753 137.892 84.8263L137.866 84.8436C137.735 84.9129 137.586 84.9995 137.56 85.138C137.543 85.2159 137.569 85.2938 137.63 85.3804C137.665 85.4324 137.743 85.4583 137.866 85.4583C137.979 85.4583 138.11 85.4324 138.197 85.3977C138.433 85.3025 138.66 85.1899 138.887 85.0774C139.184 84.9302 139.498 84.7831 139.812 84.6618C139.926 84.6186 140.057 84.6012 140.223 84.6012C140.362 84.6012 140.502 84.6186 140.615 84.6272C140.825 84.6532 141.034 84.6965 141.244 84.7398C141.453 84.783 141.663 84.8263 141.881 84.861H141.899C141.942 84.8696 141.986 84.8696 142.038 84.8696C142.204 84.8696 142.318 84.8004 142.37 84.6532V84.6272C142.361 84.3502 142.222 84.2982 142.117 84.2549Z" fill="black"/>
<path d="M124.168 120.547C124.072 120.547 123.949 120.573 123.88 120.625C123.626 120.807 123.382 121.032 123.129 121.3C122.945 121.491 122.788 121.491 122.57 121.318C122.343 121.136 122.125 120.945 121.898 120.755C121.426 120.365 120.946 119.958 120.466 119.569C120.431 119.534 120.388 119.491 120.344 119.447C120.239 119.335 120.126 119.205 119.977 119.205C119.899 119.205 119.82 119.24 119.75 119.318C119.523 119.551 119.724 119.751 119.881 119.898C119.942 119.958 120.004 120.019 120.038 120.079C120.065 120.114 120.1 120.14 120.134 120.166C120.143 120.175 120.152 120.175 120.161 120.183C120.44 120.4 120.676 120.608 120.911 120.807C121.147 121.006 121.383 121.214 121.662 121.43C121.68 121.447 121.697 121.465 121.741 121.491C121.75 121.499 121.767 121.508 121.776 121.508L121.793 121.525C121.863 121.586 121.924 121.655 121.985 121.724C122.134 121.88 122.291 122.045 122.474 122.149C122.614 122.235 122.841 122.296 122.998 122.296C123.085 122.296 123.155 122.278 123.207 122.244C123.557 121.984 123.871 121.664 124.176 121.352C124.264 121.266 124.351 121.17 124.447 121.084C124.648 120.885 124.438 120.668 124.36 120.59C124.316 120.564 124.255 120.547 124.168 120.547Z" fill="black"/>
<path d="M130.087 113.223C130.052 113.197 130.008 113.18 129.956 113.18C129.825 113.18 129.703 113.301 129.624 113.379L129.607 113.396C129.485 113.509 129.24 113.838 129.048 114.097C128.987 114.184 128.926 114.262 128.882 114.314C128.795 114.271 128.586 114.167 128.42 114.054C128.324 113.976 128.254 113.916 128.193 113.855C128.105 113.777 128.027 113.708 127.887 113.604C127.87 113.587 127.844 113.569 127.782 113.535C127.774 113.535 127.774 113.526 127.765 113.526L127.713 113.491C127.555 113.388 127.39 113.284 127.232 113.18C126.857 112.929 126.464 112.669 126.071 112.444C126.045 112.427 126.019 112.409 125.993 112.392C125.914 112.331 125.809 112.253 125.696 112.253C125.591 112.253 125.504 112.314 125.425 112.435C125.251 112.678 125.556 112.911 125.661 112.981C125.984 113.223 126.333 113.448 126.665 113.665C126.883 113.812 127.101 113.95 127.311 114.097C127.442 114.193 127.573 114.288 127.695 114.383C127.905 114.548 128.123 114.712 128.359 114.851C128.524 114.946 128.795 115.032 128.978 115.032C129.057 115.032 129.118 115.015 129.162 114.981C129.572 114.626 129.904 114.201 130.244 113.751C130.288 113.691 130.34 113.552 130.305 113.422C130.279 113.362 130.227 113.275 130.087 113.223Z" fill="black"/>
<path d="M90.3406 139.126C90.3056 139.004 90.2707 138.883 90.2271 138.771H90.2358L90.2183 138.71C90.1834 138.598 90.1485 138.476 90.1223 138.364C90.0437 138.069 89.9564 137.758 89.843 137.463C89.8342 137.446 89.8255 137.42 89.8168 137.394C89.7731 137.256 89.7033 137.048 89.5112 137.048C89.4763 137.048 89.4327 137.057 89.3977 137.074C89.0311 137.195 89.1184 137.463 89.1708 137.611C89.1795 137.637 89.1882 137.654 89.1882 137.671C89.3104 138.165 89.4501 138.658 89.5898 139.143C89.6684 139.411 89.7469 139.68 89.8255 139.957C89.8779 140.173 89.9128 140.372 89.9041 140.554C89.9041 140.918 89.7207 141.134 89.4065 141.134C89.3366 141.134 89.2668 141.126 89.1795 141.1C89.066 141.074 88.9525 141.039 88.839 141.039C88.647 141.039 88.5248 141.134 88.4724 141.316C88.4637 141.359 88.4724 141.411 88.5073 141.472C88.5509 141.541 88.6819 141.706 89.0485 141.801C89.1009 141.827 89.1533 141.818 89.2057 141.827C89.2493 141.827 89.3017 141.835 89.3454 141.835C89.7731 141.835 90.1136 141.688 90.3406 141.42C90.6112 141.1 90.6897 140.632 90.5763 140.061C90.5326 139.732 90.4366 139.429 90.3406 139.126Z" fill="black"/>
<path d="M14.2603 106.045C14.1992 106.045 14.1381 106.071 14.0508 106.123C13.9984 106.158 13.9198 106.193 13.8325 106.236C13.7278 106.288 13.6143 106.348 13.5444 106.392L13.2215 106.6C12.6191 106.989 12.0167 107.379 11.3969 107.768C11.3882 107.777 11.3882 107.777 11.3795 107.786C11.3795 107.777 11.3882 107.768 11.3882 107.76L11.4493 107.621C11.5017 107.491 11.5628 107.353 11.6239 107.223C11.781 106.929 11.9294 106.634 12.0866 106.34C12.3921 105.76 12.7151 105.162 13.0032 104.574C13.2127 104.201 13.204 104.123 13.0905 103.976C13.073 103.959 13.0643 103.933 13.0469 103.907C12.9596 103.794 12.8548 103.734 12.7326 103.734C12.5929 103.734 12.462 103.803 12.3572 103.855L12.3136 103.881C11.3271 104.366 10.3494 104.894 9.39781 105.405L9.04862 105.587C8.89149 105.665 8.71689 105.76 8.68197 105.924C8.66451 106.011 8.68197 106.106 8.76054 106.21C8.76927 106.219 8.778 106.227 8.778 106.245C8.81291 106.305 8.8653 106.392 9.00497 106.392C9.10973 106.392 9.25813 106.34 9.45892 106.245C9.86049 106.045 10.2533 105.82 10.6287 105.604C10.847 105.474 11.0652 105.353 11.2922 105.232C11.4668 105.136 11.7112 105.007 11.912 104.929C11.9294 104.929 11.9382 104.92 11.9556 104.911C11.9644 104.911 11.9731 104.911 11.9731 104.903C11.9644 104.929 11.9556 104.963 11.9294 105.015L11.781 105.31C11.6937 105.491 11.5977 105.673 11.5104 105.855L11.3009 106.271C10.9342 106.998 10.5676 107.742 10.2184 108.487C10.1486 108.634 10.1835 108.92 10.297 109.015C10.3406 109.05 10.4017 109.067 10.4803 109.067C10.5851 109.067 10.7247 109.032 10.8295 108.98C11.3446 108.712 11.7985 108.461 12.2175 108.201C13.0381 107.682 13.7103 107.232 14.3389 106.79C14.3563 106.781 14.3651 106.773 14.3825 106.764C14.4611 106.721 14.5571 106.66 14.5833 106.539C14.6008 106.452 14.5746 106.357 14.5047 106.253C14.4349 106.123 14.365 106.045 14.2603 106.045Z" fill="black"/>
<path d="M33.7975 127.542C33.7015 127.473 33.6054 127.404 33.5094 127.334C33.1515 127.066 32.8634 127.118 32.6103 127.473C32.392 127.793 32.1476 128.114 31.9206 128.417C31.8158 128.547 31.7198 128.685 31.6238 128.815C31.519 128.953 31.4143 129.101 31.3008 129.239C31.0651 129.551 30.8206 129.871 30.6024 130.2L30.5762 130.243C30.4976 130.356 30.3929 130.503 30.4278 130.65C30.4453 130.72 30.4802 130.772 30.5413 130.806C30.6024 130.858 30.6722 130.875 30.7421 130.875C30.8992 130.875 31.0214 130.746 31.1175 130.65C31.1349 130.633 31.1524 130.616 31.1611 130.598C31.3619 130.399 31.519 130.165 31.6674 129.94L31.7635 129.802C31.8682 129.655 31.9468 129.637 31.9992 129.637C32.069 129.637 32.1476 129.672 32.2523 129.741C32.4706 129.888 32.523 130.053 32.4531 130.33C32.3396 130.815 32.2261 131.3 32.1476 131.793C32.1476 131.81 32.1388 131.828 32.1388 131.854C32.1127 131.984 32.069 132.209 32.3396 132.313H32.3658C32.7412 132.313 32.846 132.07 32.9158 131.906C33.0467 131.611 33.1515 130.841 33.169 130.529C33.1864 130.217 33.2126 130.217 33.265 130.217C33.2824 130.217 33.2999 130.217 33.3174 130.217C33.361 130.217 33.4221 130.226 33.4832 130.217C33.588 130.235 34.4697 130.365 34.8189 129.369C34.976 128.832 34.8102 128.304 34.3824 127.966C34.1903 127.837 33.9896 127.689 33.7975 127.542ZM34.1729 129.222C34.1118 129.456 33.8848 129.637 33.6491 129.637C33.588 129.637 33.5356 129.629 33.4745 129.603C33.1864 129.499 32.8547 129.265 32.5579 129.066C32.4968 129.023 32.4357 128.979 32.3745 128.945C32.392 128.919 32.4182 128.893 32.4357 128.876C32.4531 128.85 32.4706 128.832 32.488 128.806C32.6364 128.607 32.7848 128.425 32.9507 128.226C33.0031 128.166 33.0555 128.105 33.0991 128.044C33.1777 128.096 33.2475 128.148 33.3261 128.2C33.5356 128.339 33.7277 128.469 33.8848 128.642C34.0419 128.78 34.2165 129.066 34.1729 129.222Z" fill="black"/>
<path d="M18.7302 113.37C18.381 113.595 18.0318 113.82 17.6826 114.028C16.9755 114.47 16.2422 114.92 15.5351 115.448C15.4129 115.526 15.3431 115.621 15.3343 115.734C15.3169 115.846 15.3605 115.967 15.4565 116.089C15.5526 116.21 15.6486 116.322 15.7359 116.443C15.8756 116.625 16.0153 116.807 16.1637 116.98C16.4867 117.353 16.862 117.552 17.2636 117.552C17.3858 117.552 17.508 117.534 17.6303 117.5C17.9969 117.387 18.3112 117.24 18.6429 117.084C18.7913 117.015 18.9485 116.937 19.1143 116.868C19.7341 116.443 20.0921 115.941 20.1619 115.379C20.2667 114.625 19.8302 113.933 19.4548 113.491C19.254 113.24 19.0008 113.197 18.7302 113.37ZM16.6438 115.465C16.7398 115.396 16.8097 115.353 16.8708 115.318C16.9406 115.275 17.0105 115.231 17.1152 115.162L17.1676 115.128C17.1763 115.128 17.185 115.119 17.1938 115.119C17.2462 115.084 17.2723 115.076 17.2898 115.05C17.4469 114.954 17.5953 114.859 17.7525 114.773C18.0493 114.591 18.3461 114.409 18.6429 114.236C18.7389 114.175 18.8262 114.149 18.8961 114.149C18.9746 114.149 19.0881 114.175 19.1842 114.426C19.5683 115.387 19.7429 115.82 18.3112 116.495C18.2326 116.53 18.1453 116.582 18.0667 116.625C17.831 116.755 17.5866 116.894 17.3247 116.894C17.2025 116.894 17.089 116.868 16.9843 116.807C16.9144 116.772 16.6438 116.443 16.4692 116.227C16.3208 116.054 16.2248 115.924 16.1637 115.863C16.1986 115.803 16.3121 115.699 16.6438 115.465Z" fill="black"/>
<path d="M75.0894 140.675C74.8973 140.043 74.5656 139.68 74.0593 139.559C73.6926 139.472 73.2998 139.42 72.8022 139.385C72.2871 139.351 72.0776 139.533 72.0776 140.069C72.0776 141.091 72.0776 142.121 72.0776 143.143C72.0776 143.749 72.2959 144 72.8197 144C72.8633 144 72.907 144 72.9506 144C74.6529 143.887 75.2465 142.554 75.2378 141.688C75.2291 141.61 75.2204 141.532 75.2116 141.437C75.1942 141.195 75.168 140.926 75.0894 140.675ZM73.9458 142.961C73.8847 143.004 73.8236 143.048 73.7712 143.074C73.4133 143.247 73.1776 143.351 73.0292 143.351C72.8546 143.351 72.8022 143.177 72.7935 142.502C72.7847 142.13 72.7586 141.749 72.7324 141.446C72.7236 141.325 72.7149 141.221 72.7062 141.126C72.7062 140.597 72.7062 140.312 72.8022 140.208C72.8371 140.173 72.8982 140.156 72.9855 140.156C73.1165 140.156 73.3085 140.191 73.5704 140.243C74.068 140.329 74.3125 140.572 74.4085 141.056C74.5743 141.775 74.6442 142.468 73.9458 142.961Z" fill="black"/>
<path d="M9.5984 95.1716C9.51983 94.9984 9.31032 94.8945 8.98732 94.8772C8.68178 94.8599 8.37623 94.8945 8.07942 94.9205L7.67785 94.9551C6.80488 95.0417 5.90571 95.1283 5.01527 95.2408C4.91051 95.2495 4.71846 95.3188 4.63116 95.4486C4.58751 95.5092 4.57879 95.5698 4.58752 95.6391C4.58752 95.7516 4.62243 95.8382 4.68354 95.9075C4.77084 96.0027 4.89305 96.0027 4.91924 96.0027C4.94543 96.0027 4.96289 96.0027 4.97162 95.994C5.18113 95.9508 5.33827 95.9161 5.44303 95.9161C5.66127 95.9161 5.71365 96.046 5.92317 96.678C5.95809 96.7905 6.02793 96.955 6.0803 97.0676C6.31601 97.5091 6.37712 97.8554 5.92317 98.193C5.85333 98.245 5.73984 98.3402 5.73111 98.4787C5.72238 98.574 5.77476 98.6692 5.86206 98.7644L5.87952 98.7818C5.9319 98.8424 6.03665 98.9463 6.18506 98.9463C6.26363 98.9463 6.3422 98.9116 6.41203 98.8424C6.53425 98.7298 6.64774 98.6086 6.76123 98.5047C6.9882 98.2796 7.20644 98.0718 7.41596 97.8554C7.58182 97.6822 7.74769 97.5178 7.90482 97.3533C8.40242 96.8425 8.92621 96.3057 9.39761 95.7516C9.65951 95.4833 9.65078 95.2841 9.5984 95.1716ZM8.3675 95.7083C8.03577 96.072 7.73023 96.3923 7.42469 96.7299L7.04931 97.1368L6.9882 96.9897C6.81361 96.6001 6.62155 96.1672 6.50806 95.8555C6.56917 95.8555 6.63901 95.8469 6.67393 95.8469C7.13661 95.7949 7.59928 95.7603 8.1318 95.7257L8.3675 95.7083Z" fill="black"/>
<path d="M41.7243 132.079C41.6719 132.061 41.6195 132.053 41.5759 132.053C41.3576 132.053 41.1743 132.209 41.0521 132.321C40.1966 133.074 39.3323 133.871 38.3895 134.771C38.3022 134.858 38.1538 135.048 38.1538 135.204C38.1538 135.265 38.18 135.317 38.2236 135.36C38.3459 135.472 38.4506 135.524 38.5467 135.524C38.6951 135.524 38.7824 135.403 38.826 135.334L38.8435 135.308C38.9919 135.109 39.1403 135.014 39.3149 135.014C39.472 135.014 39.6379 135.083 39.8037 135.152C39.8736 135.178 39.9434 135.213 40.0132 135.23L40.0569 135.247C40.6854 135.464 40.895 135.542 40.8426 136.156C40.8426 136.165 40.8251 136.226 40.8077 136.295C40.7902 136.381 40.764 136.485 40.764 136.503C40.7204 136.598 40.7204 136.685 40.7553 136.754C40.8164 136.875 40.9735 136.91 41.0259 136.927C41.0696 136.936 41.1307 136.953 41.2005 136.953C41.3751 136.953 41.4799 136.866 41.4973 136.71C41.506 136.624 41.506 136.546 41.5148 136.459C41.5235 136.286 41.541 136.13 41.5497 135.975C41.5846 135.663 41.6283 135.36 41.6632 135.048C41.7592 134.286 41.8552 133.499 41.9338 132.702C41.9687 132.52 42.0036 132.191 41.7243 132.079ZM41.1656 133.17C41.1132 133.568 41.0608 133.923 41.0172 134.286L40.9561 134.763L39.926 134.373L39.9958 134.304C40.3974 133.914 40.764 133.559 41.1656 133.17Z" fill="black"/>
<path d="M6.87509 85.7003C6.87509 85.5618 6.7878 85.406 6.55209 85.406C6.50845 85.406 6.45606 85.4146 6.40368 85.4233C6.30766 85.4406 6.2029 85.4579 6.09814 85.4839C5.84498 85.5272 5.58309 85.5791 5.34738 85.6397C5.24262 85.6657 5.16406 85.683 5.09422 85.683C4.96327 85.683 4.8236 85.6397 4.76249 85.3281C4.65773 84.7567 4.51806 84.2026 4.36092 83.7005C4.30854 83.5446 4.30854 83.4494 4.35219 83.3888C4.38711 83.3282 4.4744 83.2936 4.63154 83.2676L4.81487 83.2416C5.2077 83.181 5.60927 83.1291 6.00211 83.0165C6.32512 82.9299 6.46479 82.7655 6.4386 82.549C6.44733 82.4798 6.42115 82.4192 6.38623 82.3759C6.32512 82.3066 6.21163 82.272 6.03703 82.272C5.9672 82.272 5.90609 82.2806 5.85371 82.2806C5.41722 82.3239 4.972 82.4018 4.54424 82.4798C4.38711 82.5057 4.22997 82.5317 4.08157 82.5577L3.70619 82.6183C3.31335 82.6789 2.91178 82.7395 2.51021 82.8174C2.46656 82.8261 2.41418 82.8347 2.3618 82.8347C2.19594 82.852 2.00388 82.878 1.89913 83.0079C1.83802 83.0858 1.82056 83.1897 1.84675 83.3195C1.88166 83.5273 2.00388 83.6312 2.2134 83.6312C2.29197 83.6312 2.37926 83.6139 2.46656 83.5966C2.51021 83.5879 2.56259 83.5793 2.60624 83.5706L2.65861 83.5619C2.78083 83.5533 2.90305 83.536 3.01653 83.5013C3.08637 83.484 3.15621 83.4667 3.20859 83.4667C3.33954 83.4667 3.51413 83.51 3.60143 83.8563C3.63635 84.0121 3.67127 84.168 3.71492 84.3325C3.80221 84.6961 3.88078 85.0683 3.98554 85.4406C4.02919 85.5965 4.02919 85.709 3.98554 85.7783C3.94189 85.8475 3.83714 85.8908 3.68 85.9081L3.62762 85.9168C3.32208 85.9514 3.00781 85.9947 2.71099 86.0986L2.69353 86.1073C2.56259 86.1505 2.32689 86.2371 2.37053 86.5834C2.40545 86.696 2.48402 86.8345 2.71099 86.8345C2.7721 86.8345 2.83321 86.8258 2.86813 86.8172C4.08157 86.6094 5.29501 86.3756 6.48225 86.1246C6.66558 86.0899 6.87509 85.9514 6.87509 85.7003Z" fill="black"/>
<path d="M65.5915 139.005C65.0241 138.962 64.5003 138.953 64.0114 138.979C63.8543 138.988 63.636 139.221 63.6186 139.386L63.6099 139.472C63.5487 140.113 63.5051 140.581 63.4702 141.239C63.4615 141.282 63.4527 141.36 63.444 141.516C63.444 141.576 63.4353 141.663 63.4353 141.706L63.4265 141.767C63.4178 141.897 63.4091 142 63.4091 142.096C63.3916 142.329 63.3829 142.494 63.3916 142.814C63.4003 142.987 63.5662 143.264 63.7321 143.308C64.2122 143.446 64.7011 143.507 65.0765 143.541H65.0852C65.1899 143.541 65.2772 143.507 65.3384 143.446C65.4431 143.334 65.4431 143.161 65.4431 143.083C65.4431 142.909 65.3471 142.866 65.2249 142.814C65.0241 142.728 64.7447 142.728 64.5265 142.719H64.4654C64.3344 142.719 64.2384 142.693 64.186 142.632C64.1162 142.563 64.0987 142.433 64.1075 142.2V142.165C64.1424 141.585 64.1511 141.542 64.4479 141.542C64.5439 141.542 64.6749 141.55 64.832 141.559H64.8495C64.8931 141.559 64.9368 141.559 64.9717 141.559H64.9892C65.0415 141.559 65.1114 141.576 65.1725 141.585C65.2423 141.602 65.3209 141.62 65.3907 141.62C65.5741 141.62 65.6701 141.507 65.6875 141.291C65.6963 141.152 65.6701 141.048 65.6002 140.979C65.478 140.849 65.286 140.866 65.1288 140.875C65.0765 140.875 65.0241 140.875 64.9717 140.875H64.9455C64.5439 140.849 64.317 140.832 64.2384 140.736C64.1598 140.641 64.1773 140.433 64.2035 140.052V140.027C64.2209 139.749 64.317 139.672 64.5701 139.698L64.6923 139.706C64.9804 139.732 65.286 139.758 65.5479 139.732C65.5566 139.732 65.5741 139.732 65.5828 139.732H65.6352C65.8098 139.732 65.8796 139.628 65.8796 139.36C65.8971 139.213 65.8796 139.117 65.8359 139.066C65.7661 138.988 65.6701 139.014 65.5915 139.005Z" fill="black"/>
<path d="M26.1329 121.326C26.0544 121.317 25.9758 121.317 25.8885 121.317C24.4481 121.317 23.2084 122.452 23.06 123.906C22.9902 124.625 23.4267 125.317 24.1251 125.577C24.2036 125.603 24.2997 125.62 24.387 125.62C24.4481 125.62 24.5092 125.611 24.5616 125.603C24.675 125.577 24.806 125.456 24.8235 125.343C24.8409 125.257 24.7885 125.187 24.6838 125.118C24.6139 125.075 24.5354 125.049 24.4568 125.023C24.3084 124.971 24.1338 124.919 23.933 124.694C23.6711 124.339 23.6886 124.036 23.741 123.785C23.9156 122.98 24.387 122.408 25.1552 122.088C25.8798 121.776 26.3948 121.958 26.6742 122.616C26.7178 122.72 26.84 122.876 26.9884 122.876C27.0146 122.876 27.0408 122.876 27.0495 122.867C27.2416 122.832 27.2503 122.633 27.2591 122.529V122.512C27.3114 121.897 26.8051 121.387 26.1329 121.326Z" fill="black"/>
<path d="M50.0962 135.619C49.7121 135.437 49.2931 135.282 48.7693 135.126C48.6733 135.091 48.5773 135.083 48.49 135.083C48.2892 135.083 48.0273 135.169 47.8876 135.567C47.7654 135.922 47.6344 136.277 47.5035 136.615C47.4511 136.762 47.39 136.909 47.3376 137.048L47.3202 137.082V137.091C47.2678 137.23 47.2154 137.359 47.163 137.498C47.0146 137.879 46.8575 138.277 46.744 138.684L46.7265 138.727C46.6829 138.875 46.6043 139.117 46.9622 139.29L46.9884 139.299C47.2591 139.299 47.3114 139.178 47.3638 139.056C47.3813 139.022 47.39 138.987 47.4162 138.952C47.4511 138.892 47.4773 138.823 47.4948 138.762C47.5035 138.736 47.5122 138.71 47.5297 138.684C47.713 138.182 47.809 137.983 47.9924 137.983C48.1233 137.983 48.3328 138.087 48.6209 138.243C48.6645 138.26 48.8042 138.338 48.8828 138.338C48.9177 138.338 48.9526 138.346 48.9963 138.355C49.0399 138.364 49.0836 138.372 49.136 138.372C49.2233 138.372 49.3018 138.338 49.3717 138.268L49.3891 138.243C49.5375 137.879 49.424 137.792 49.2844 137.723L49.2145 137.688C49.1447 137.645 49.0399 137.593 48.9526 137.559C48.8653 137.524 48.7868 137.498 48.7169 137.472C48.0709 137.238 48.0709 137.238 48.3241 136.537L48.4027 136.321C48.4376 136.225 48.5336 135.974 48.5773 135.905C48.6209 135.905 48.7257 135.931 48.8042 135.957L48.8741 135.974C49.0312 136.009 49.1709 136.069 49.328 136.13C49.4677 136.182 49.6074 136.243 49.7558 136.286L49.7994 136.303C49.8605 136.321 49.9391 136.347 50.0089 136.347C50.1399 136.347 50.2446 136.286 50.3145 136.147C50.4192 135.914 50.3319 135.723 50.0962 135.619Z" fill="black"/>
<path d="M58.1619 137.862C57.4461 137.689 56.7477 137.533 56.0318 137.42C55.8834 137.403 55.7699 137.464 55.7088 137.594C55.6477 137.723 55.6565 137.905 55.7263 137.974C55.8136 138.087 55.9969 138.13 56.1279 138.156L56.1628 138.165C56.3723 138.208 56.512 138.252 56.5556 138.321C56.5818 138.364 56.5731 138.451 56.5294 138.58C56.4421 138.866 56.3636 139.109 56.2937 139.351C56.2239 139.602 56.1453 139.853 56.0493 140.147L56.0318 140.208H56.0406C56.0318 140.251 56.0144 140.303 56.0057 140.347C55.9795 140.442 55.962 140.494 55.962 140.537C55.9445 140.624 55.9183 140.71 55.8922 140.797C55.8311 141.013 55.7699 141.23 55.7525 141.463C55.7525 141.489 55.7438 141.515 55.735 141.541C55.7088 141.619 55.6826 141.723 55.7438 141.818C55.7874 141.888 55.866 141.94 55.9969 141.974H56.0144C56.3286 141.974 56.3723 141.792 56.3985 141.663C56.4072 141.637 56.4072 141.619 56.4159 141.602C56.5731 141.074 56.7128 140.537 56.8524 140.018C56.9135 139.793 56.9746 139.567 57.0358 139.342L57.0445 139.308C57.1056 139.065 57.2278 138.615 57.3588 138.511C57.4199 138.485 57.5421 138.511 57.673 138.546C57.8127 138.589 57.9611 138.624 58.1008 138.598C58.2405 138.572 58.3365 138.451 58.3889 138.234C58.4238 137.948 58.223 137.871 58.1619 137.862Z" fill="black"/>
</g>
<defs>
<clipPath id="clip0_117_321">
<rect width="144" height="144" fill="white"/>
</clipPath>
</defs>
</svg>