<svg xmlns="http://www.w3.org/2000/svg" width="126" height="46" viewBox="0 0 126 46" fill="none">
<path fill-rule="evenodd" clip-rule="evenodd" d="M52.63 6.75246C53.0358 7.3591 53.4489 7.95851 53.8547 8.56515C54.5141 9.54011 55.0286 10.2984 55.5213 11.0062C55.7749 11.3672 56.0286 11.7283 56.2822 12.0967C56.63 12.5877 56.9923 13.1005 57.3401 13.606C57.8836 14.4004 58.4198 15.1876 58.956 15.982C59.4633 16.7259 59.9633 17.4769 60.4778 18.2208C60.9343 18.8852 61.4053 19.5496 61.8545 20.1996C62.0937 20.539 62.3256 20.8712 62.5647 21.2107C62.6516 21.3334 62.7821 21.4057 62.9125 21.4057C63.0429 21.4057 63.1661 21.3407 63.2458 21.2179C63.5429 20.799 63.8328 20.3729 64.1299 19.9541L64.7313 19.073C65.1009 18.5313 65.4777 17.9753 65.8617 17.4336C66.1081 17.087 66.3545 16.7403 66.6008 16.4009C66.8472 16.0542 67.1008 15.7148 67.3472 15.3682C67.782 14.7471 68.2168 14.126 68.6443 13.5049C68.9052 13.1294 69.166 12.7538 69.4269 12.3783C69.637 12.0822 69.8472 11.7861 70.0573 11.4972C70.2964 11.165 70.5356 10.8328 70.7674 10.5006C71.195 9.89397 71.6153 9.29456 72.0355 8.68792C72.4703 8.05962 72.9123 7.43854 73.3471 6.81024C73.5573 6.51414 73.7674 6.21804 73.9775 5.92917C74.2891 5.49586 74.6152 5.04809 74.9196 4.60033C75.1949 4.20313 75.2384 4.10203 74.934 3.69038C74.2746 2.78765 73.666 1.95713 73.0935 1.14106C73.0065 1.02551 72.9268 0.902736 72.8471 0.779964C72.7384 0.613861 72.6297 0.447759 72.5138 0.2961C72.4268 0.18055 72.2674 0.0577764 72.1225 0.0577764H72.0138C71.7457 0.0577764 71.4776 0.0722193 71.2167 0.0794411C71.0066 0.086663 70.8037 0.093884 70.5935 0.101106C70.0066 0.108328 69.4196 0.108329 68.8399 0.108329H68.4414C68.2168 0.108329 67.9921 0.108329 67.7603 0.108329C67.5356 0.108329 67.311 0.108329 67.0863 0.108329C66.6661 0.108329 66.3182 0.108326 65.9922 0.0938825C65.6733 0.0938825 65.5357 0.296097 65.4197 0.4622C64.9632 1.10495 64.5067 1.75492 64.0502 2.39766C63.7965 2.75876 63.5429 3.11986 63.2893 3.48095C63.2241 3.56761 63.1589 3.66149 63.0792 3.75538C63.0574 3.77704 63.0429 3.79871 63.0212 3.8276L62.9197 3.68316C62.6661 3.32207 62.427 2.98263 62.1951 2.63598C61.6734 1.86324 61.1444 1.08328 60.6299 0.303318C60.4922 0.0938831 60.3256 0 60.0792 0H60.0502C59.2676 0.0216656 58.4198 0.0433311 57.5648 0.0505529C57.0937 0.0505529 56.63 0.0577764 56.159 0.0577764H55.4633C54.9489 0.0577764 54.4416 0.0577779 53.9271 0.0649998C53.8184 0.0649998 53.6228 0.10833 53.5431 0.216659C53.3402 0.483868 53.1518 0.758296 52.9634 1.02551C52.8547 1.18439 52.746 1.34327 52.63 1.50215C52.1083 2.23878 51.5866 2.98263 51.0576 3.71926C50.8112 4.07314 50.8257 4.12369 51.0938 4.52089C51.6228 5.25753 52.1301 6.00861 52.63 6.75246ZM66.1588 0.476647L66.1661 0.548865C66.9197 0.556086 67.6805 0.548863 68.4486 0.541641C69.5863 0.527197 70.7602 0.519977 71.9269 0.498312C72.0863 0.498312 72.1877 0.548863 72.2747 0.671635C72.9341 1.6177 73.6007 2.57099 74.2891 3.53872C74.3978 3.69038 74.5065 3.84204 74.6297 4.00092C74.7094 4.10202 74.7094 4.17425 74.6225 4.29702C74.0573 5.0842 73.492 5.89305 72.9486 6.68024L71.5355 8.70237C70.8616 9.6701 70.1878 10.6378 69.5066 11.5983C69.3617 11.8078 69.2095 12.01 69.0501 12.2194C68.9921 12.2989 68.9341 12.3711 68.8762 12.4505C68.811 12.3639 68.753 12.2772 68.6878 12.1905C68.5428 11.9883 68.3979 11.7933 68.2675 11.5983C67.6443 10.6739 67.0211 9.74232 66.4052 8.81792L65.9632 8.1535C65.5864 7.59019 65.2096 7.02689 64.8328 6.45636C64.3617 5.74862 63.8835 5.03366 63.4052 4.32591C63.3328 4.21758 63.311 4.15259 63.3908 4.04426C64.3255 2.76598 65.0936 1.71159 65.8182 0.707747C65.9124 0.577753 66.0139 0.5272 66.1806 0.5272V0.476647H66.1588ZM65.4849 8.24739C65.8545 8.79625 66.224 9.35234 66.5936 9.9012C66.9269 10.3923 67.253 10.8834 67.5791 11.3745C67.724 11.5911 67.8689 11.8078 68.0066 12.0244C68.166 12.27 68.3327 12.5227 68.4994 12.7611C68.5573 12.8549 68.5573 12.9055 68.4921 12.9994C68.0429 13.6277 67.6008 14.2632 67.1588 14.8987C66.8907 15.2815 66.6226 15.6643 66.3545 16.047L65.8255 16.8053C65.34 17.5058 64.8473 18.1991 64.3618 18.8997C64.1299 19.2246 63.8907 19.5569 63.6589 19.8818C63.456 20.1707 63.2458 20.4524 63.0429 20.7412C62.9995 20.799 62.9705 20.8496 62.927 20.9218L62.9197 20.9362C62.8908 20.9001 62.869 20.8712 62.84 20.8423C62.7168 20.6979 62.6082 20.5535 62.5067 20.409C62.1299 19.8674 61.7603 19.333 61.3835 18.7913L60.7749 17.9103C60.2531 17.152 59.7314 16.3937 59.2097 15.6282C58.6444 14.7904 58.043 13.9021 57.2749 12.7466C57.2532 12.7105 57.2459 12.6383 57.2532 12.6238C57.5068 12.2628 57.7676 11.8944 58.0213 11.5333L58.4053 10.9917C58.601 10.7173 58.7894 10.4428 58.985 10.1756C59.2749 9.76398 59.5575 9.35956 59.8546 8.94791C60.3328 8.2835 60.8111 7.6263 61.2966 6.96911L61.956 6.05916C62.2893 5.60418 62.6226 5.1492 62.9487 4.69422C62.9705 4.66534 62.9922 4.63644 63.0284 4.60033L63.0937 4.687C63.2313 4.87477 63.3545 5.0481 63.4777 5.22865C63.8473 5.78473 64.2168 6.33358 64.5864 6.88967C64.8835 7.34465 65.1806 7.79241 65.4849 8.24739ZM62.6951 4.30425C62.369 4.76645 62.0357 5.22142 61.7024 5.6764C61.514 5.92916 61.3328 6.18915 61.1444 6.44192C60.456 7.38798 59.7749 8.33405 59.0937 9.28734C58.7242 9.80732 58.3474 10.3273 57.9778 10.8473C57.7024 11.2373 57.4271 11.62 57.1517 12.01L57.0575 12.1472C57.0285 12.1905 56.9923 12.2339 56.9561 12.2916C56.9343 12.27 56.9198 12.2411 56.8981 12.2194C56.8111 12.1183 56.7459 12.0317 56.6807 11.9306C56.4488 11.5911 56.217 11.2517 55.9851 10.905C55.6952 10.4862 55.4126 10.0601 55.1228 9.64122C54.9344 9.36678 54.746 9.09957 54.5576 8.83236C54.2894 8.45682 54.0213 8.07406 53.7605 7.6913C52.9489 6.4708 52.1445 5.22864 51.4634 4.1598C51.4344 4.10925 51.4344 3.9937 51.4634 3.95037C51.8837 3.32929 52.3257 2.70821 52.746 2.10157L53.1083 1.58159C53.2025 1.44438 53.3039 1.30716 53.3981 1.16995C53.5286 0.9894 53.659 0.808853 53.7822 0.628306C53.8764 0.49109 53.9924 0.440535 54.1663 0.440535H54.717C55.5068 0.440535 56.2894 0.447759 57.0793 0.447759C58.13 0.447759 58.9995 0.440534 59.8183 0.433312H59.8401C60.1227 0.433312 60.2676 0.512753 60.4415 0.772741C60.8763 1.42271 61.3256 2.07268 61.7676 2.70821C62.014 3.05486 62.2531 3.40873 62.4922 3.7626C62.5937 3.91426 62.6734 4.04425 62.7241 4.1598C62.7313 4.19591 62.7241 4.26814 62.6951 4.30425Z" fill="black"/>
<path fill-rule="evenodd" clip-rule="evenodd" d="M63.1148 10.6885L63.093 10.6596C63.0206 10.573 62.9409 10.4863 62.8612 10.3996C62.5351 10.0458 62.1365 9.87966 61.7742 9.95188C60.6003 10.1758 60.1148 10.8835 60.325 12.0607C60.4627 12.8334 60.9481 13.4401 61.3467 13.8806C61.5423 14.0972 61.738 14.3067 61.9409 14.5233C62.2307 14.8411 62.5278 15.1589 62.8177 15.4766C62.9191 15.5922 63.0206 15.6499 63.1148 15.6499C63.2235 15.6499 63.3249 15.5777 63.4191 15.4333C63.4409 15.3972 63.4699 15.3611 63.4916 15.3177C63.5785 15.1878 63.6655 15.0433 63.7742 14.9494C64.3901 14.4006 64.9264 13.7867 65.3611 13.1223C65.8756 12.3351 66.0278 11.6707 65.8466 10.9557C65.68 10.3058 65.2307 9.91577 64.6365 9.91577C64.3829 9.91577 64.1075 9.988 63.8467 10.1252C63.651 10.2335 63.4771 10.378 63.3032 10.5296C63.238 10.5874 63.1728 10.638 63.1148 10.6885ZM63.1148 11.2735C63.2597 11.2735 63.3829 11.1435 63.6293 10.8763C63.9336 10.5441 64.2452 10.3852 64.622 10.3852C64.9046 10.3852 65.1075 10.5152 65.2597 10.7824C65.4988 11.2013 65.5205 11.6563 65.3249 12.169C65.0423 12.9201 64.5423 13.4978 63.9626 14.1261C63.7452 14.3645 63.5133 14.5883 63.2742 14.8339L63.0496 15.0578C62.9481 14.9422 62.8394 14.8339 62.7307 14.7183C62.4699 14.4439 62.2018 14.1622 61.9481 13.8734L61.8684 13.7867C61.5786 13.4545 61.2887 13.1151 61.0641 12.7395C60.7308 12.1618 60.6583 11.6779 60.825 11.2085C60.9699 10.7968 61.4192 10.4574 61.8394 10.443H61.8757C62.1365 10.443 62.3394 10.5369 62.5061 10.7174C62.5423 10.7607 62.5786 10.7968 62.6075 10.8402C62.8467 11.1218 62.9626 11.2735 63.1148 11.2735Z" fill="black"/>
<path fill-rule="evenodd" clip-rule="evenodd" d="M67.1582 7.2075L67.1944 7.31584L67.2814 7.23639C67.2959 7.22195 67.3176 7.20751 67.3394 7.19307C67.3901 7.14973 67.4481 7.1064 67.477 7.0414C67.5785 6.77419 67.6799 6.49254 67.7524 6.19644C67.8031 5.97979 67.9046 5.92201 68.1147 5.94367C68.2669 5.95812 68.4553 5.95812 68.6509 5.9509C68.7017 5.9509 68.7596 5.9509 68.8104 5.9509L68.8828 5.95812C68.9625 5.95812 69.0495 5.95812 69.1292 5.95812C69.3466 5.95812 69.5712 5.95811 69.7886 5.96534C69.8466 5.96534 69.9408 6.01589 69.9625 6.05922C70.0929 6.31199 70.2016 6.5792 70.3248 6.88252C70.3466 6.92585 70.3538 6.9764 70.3683 7.02695C70.39 7.09917 70.4045 7.17862 70.448 7.24361C70.4842 7.30861 70.5639 7.33028 70.6292 7.35195C70.6509 7.35917 70.6726 7.36639 70.6944 7.37361L70.7668 7.40249L70.7958 7.33027C70.8031 7.30861 70.8103 7.28694 70.8248 7.26528C70.8538 7.20028 70.89 7.13528 70.8683 7.06307C70.8103 6.88252 70.7451 6.70919 70.6726 6.54309L70.6074 6.36977C70.5205 6.15311 70.4335 5.93645 70.3538 5.7198C70.1364 5.17815 69.919 4.62207 69.7161 4.06599C69.5712 3.66879 69.4553 3.25713 69.3393 2.85271C69.2958 2.70827 69.2524 2.55662 69.2089 2.41218C69.1364 2.17386 69.0132 2.07275 68.8538 2.1233C68.7089 2.16663 68.5277 2.29662 68.4698 2.4555C68.2451 3.10547 68.0133 3.82044 67.7379 4.69429C67.5278 5.36592 67.3176 6.08811 67.093 6.90418C67.0713 6.9764 67.1075 7.05584 67.1437 7.12806C67.1365 7.15695 67.151 7.18584 67.1582 7.2075ZM68.0133 5.40203C68.064 5.23593 68.1075 5.0626 68.1582 4.8965C68.3466 4.21042 68.5495 3.49546 68.8756 2.83104C69.1364 3.70489 69.4045 4.58596 69.6727 5.49592C69.6509 5.49592 69.6292 5.50314 69.6074 5.50314C69.506 5.51758 69.3973 5.53203 69.2741 5.53203C69.006 5.53203 68.7379 5.51758 68.477 5.50314C68.3466 5.49591 68.2162 5.4887 68.0857 5.4887C68.0205 5.4887 68.0133 5.47425 68.0133 5.47425C68.006 5.47425 67.9988 5.45981 68.0133 5.40203Z" fill="black"/>
<path fill-rule="evenodd" clip-rule="evenodd" d="M58.2746 4.99746C58.2239 4.95413 58.1659 4.90357 58.1152 4.86024C58.5934 4.57859 58.8036 4.12361 58.7384 3.48809C58.6949 3.07644 58.3471 2.55647 57.9485 2.50591C57.3688 2.42647 56.7819 2.38314 56.2312 2.34703C56.0862 2.33981 55.992 2.36869 55.9268 2.43369C55.8616 2.50591 55.8326 2.60702 55.8399 2.75868C55.8399 2.83812 55.8544 2.92478 55.8616 3.00422C55.8761 3.13422 55.8833 3.26421 55.8833 3.40143C55.8688 3.92863 55.8544 4.4486 55.8399 4.97579C55.8254 5.51021 55.8109 6.03742 55.7964 6.57184C55.7964 6.78127 55.8109 6.99792 55.8326 7.20735L55.8471 7.33735C55.8761 7.64067 56.05 7.69845 56.1877 7.69845C56.1949 7.69845 56.2094 7.69845 56.2239 7.69845C56.3833 7.69123 56.55 7.684 56.7094 7.67678C57.1152 7.66234 57.5427 7.64067 57.9485 7.55401C58.3616 7.46013 58.6804 7.19291 58.8471 6.78848C59.0282 6.35517 58.992 5.86409 58.7601 5.49577C58.6297 5.308 58.4485 5.14912 58.2746 4.99746ZM57.463 4.62915C57.3398 4.63637 57.2094 4.63637 57.0862 4.62915C57.021 4.62915 56.963 4.62915 56.8978 4.62915H56.8254C56.7964 4.62915 56.7674 4.62915 56.7312 4.62915C56.6007 4.62915 56.4775 4.63636 56.3543 4.62192C56.3326 4.6147 56.2746 4.56414 56.2674 4.54248C56.2746 4.26082 56.2819 3.97917 56.2891 3.69752C56.2964 3.42309 56.3109 3.14866 56.3109 2.87422C56.3109 2.78034 56.3326 2.78035 56.3761 2.78035C56.3833 2.78035 56.3906 2.78035 56.4051 2.78035C56.5065 2.78757 56.6152 2.78756 56.7167 2.79478C57.0065 2.80923 57.3036 2.81645 57.5862 2.86701C58.0862 2.94645 58.3181 3.29309 58.2819 3.89973C58.2529 4.28971 57.905 4.60026 57.463 4.62915ZM56.2529 5.26467C56.2529 5.22856 56.3254 5.1419 56.3471 5.13468C56.4268 5.13468 56.5065 5.13468 56.5935 5.13468C56.6732 5.13468 56.7529 5.13468 56.8326 5.13468C57.1442 5.13468 57.4775 5.15635 57.8036 5.28634C58.2963 5.48855 58.55 5.97241 58.4123 6.4635C58.2601 7.02681 57.9703 7.25069 57.3906 7.26513C57.3398 7.26513 57.2819 7.26513 57.2311 7.26513H56.7819C56.6732 7.26513 56.5717 7.26514 56.463 7.27236H56.4413C56.3254 7.27236 56.2529 7.23625 56.2529 7.0557C56.2529 6.75238 56.2529 6.44906 56.2529 6.15297C56.2529 6.08075 56.2529 6.0013 56.2529 5.92186C56.2456 5.69798 56.2456 5.48132 56.2529 5.26467Z" fill="black"/>
<path fill-rule="evenodd" clip-rule="evenodd" d="M75.7017 31.9931C77.035 31.6247 77.564 30.6642 77.0857 29.3932C76.8756 28.8299 76.3031 28.1582 75.9118 27.8549C76.3031 27.5733 76.7162 26.9161 76.8104 26.3889C77.035 25.1323 76.2742 23.8468 74.6148 23.6157C73.3684 23.4423 72.1003 23.3774 70.8395 23.3701C68.8105 23.3629 66.7815 23.4351 64.7526 23.5001C64.5859 23.5073 64.2671 23.5146 64.2743 23.8468C64.2236 24.2584 64.5497 24.179 64.7019 24.1934C65.1149 24.2368 65.6656 24.2584 66.0859 24.2223C66.796 24.2368 66.7453 24.2368 66.7526 24.9589C66.7743 27.0461 66.7888 29.1332 66.825 31.2131C66.825 31.567 66.6946 31.7331 66.3395 31.7547C65.8758 31.7764 65.412 31.7908 64.9627 31.8558C64.7598 31.8847 64.3613 31.8847 64.3758 32.1303C64.383 32.6141 64.7961 32.5491 65.0135 32.5491C65.3106 32.5491 65.6004 32.5058 65.8975 32.4914C66.4772 32.4697 67.0642 32.4191 67.6439 32.4047C69.738 32.3541 71.825 32.3397 73.9191 32.2675C74.5206 32.2603 75.1292 32.1519 75.7017 31.9931ZM67.5279 24.8506C67.5207 24.4317 67.6584 24.2223 68.1149 24.2151C69.8032 24.1934 71.4916 24.0995 73.18 24.1284C73.8467 24.1429 74.5278 24.3451 75.1727 24.5617C75.7814 24.7639 76.1582 25.71 75.9771 26.3383C75.7524 27.1111 75.0568 27.6166 74.3466 27.5733C73.7452 27.5372 73.2525 27.566 72.6438 27.566C72.6438 27.6022 72.1076 27.5733 72.1148 27.6094C70.6655 27.6094 69.6438 27.6527 68.1873 27.6744C67.6946 27.6816 67.4917 27.5227 67.5207 27.0172C67.5497 26.295 67.5424 25.5728 67.5279 24.8506ZM70.8684 31.6536C69.9844 31.697 69.1076 31.7186 68.2236 31.7259C67.412 31.7331 67.6801 31.5597 67.6366 30.7509C67.6076 30.1876 67.5641 29.6315 67.5207 29.0754C67.4917 28.6493 67.6149 28.3821 68.1076 28.3966C68.6511 28.411 69.1873 28.3677 69.7235 28.3677C71.4844 28.3604 73.2452 27.9849 75.0061 28.4254C75.8176 28.6277 76.2307 29.1476 76.4553 29.8698C76.6075 30.3465 76.2597 30.9531 75.6365 31.1698C75.1148 31.3575 74.5568 31.4586 73.9988 31.5164C73.1003 31.6103 72.1945 31.632 71.296 31.6825C71.296 31.6681 70.8684 31.6681 70.8684 31.6536Z" fill="black"/>
<path fill-rule="evenodd" clip-rule="evenodd" d="M31.9996 31.9135C31.601 31.8991 31.1952 31.8846 30.7967 31.9279C30.6445 31.9424 30.3691 31.8557 30.3691 32.2385C30.3691 32.5996 30.63 32.5129 30.7894 32.5562C30.9996 32.614 31.2314 32.5851 31.4488 32.5851C32.2749 32.5707 33.0937 32.5418 33.9198 32.549C36.1299 32.5563 38.34 32.8018 40.5501 32.4551C42.2603 32.1879 43.0429 31.1624 42.724 29.5158C42.5791 28.7431 42.0646 28.2592 41.3617 27.8981C41.5574 27.7248 41.7168 27.6093 41.8545 27.4648C42.3762 26.9304 42.5574 26.201 42.3907 25.5799C42.1153 24.5183 41.2965 23.7744 40.2023 23.5506C39.2458 23.3556 38.2458 23.305 37.2603 23.2834C35.3111 23.24 33.3618 23.2617 31.4126 23.2617C31.2532 23.2617 31.0286 23.2472 30.8836 23.2545C30.6373 23.2761 30.4416 23.1317 30.4054 23.695C30.4344 24.1211 30.7677 23.9839 30.9633 24.0128C31.3184 24.0633 31.688 24.0344 32.0503 24.0272C32.3764 24.02 32.5285 24.1716 32.5213 24.4966C32.5213 26.8076 32.514 29.1114 32.5213 31.4152C32.514 31.7907 32.3474 31.9207 31.9996 31.9135ZM41.9414 30.4619C41.8907 31.018 41.1733 31.5957 40.4994 31.7041C38.2748 32.0724 36.043 31.8557 33.8111 31.8196C33.4633 31.8124 33.2676 31.6752 33.2532 31.343C33.2169 30.4836 33.2242 29.3353 33.2532 28.4759C33.2604 28.3387 33.5502 28.4037 33.7531 28.3892C34.3691 28.3387 34.9995 28.3748 35.6227 28.3748V28.3676C36.9705 28.3676 38.311 28.3531 39.6589 28.3748C40.0357 28.3748 40.427 28.4398 40.7893 28.5337C41.6371 28.7648 42.0429 29.4581 41.9414 30.4619ZM33.2169 24.6483C33.2169 24.2511 33.3401 23.9983 33.8256 24.0416C34.2024 24.0778 34.5865 24.0344 34.9705 24.0272C35.3546 24.0272 35.7314 24.0272 36.1154 24.0272C36.1154 24.0055 36.456 24.0561 36.456 24.0344C37.6589 24.0994 38.5284 24.0633 39.7241 24.1572C40.9197 24.2511 41.7385 25.3994 41.4559 26.526C41.3038 27.1326 40.6371 27.6309 39.9052 27.6454C38.1371 27.6743 36.0285 27.6887 34.2604 27.7031C33.0575 27.7681 33.2314 27.5298 33.1879 26.136C33.1807 25.6449 33.2097 25.1466 33.2169 24.6483Z" fill="black"/>
<path fill-rule="evenodd" clip-rule="evenodd" d="M55.8398 32.5273C56.8035 32.4984 57.7673 32.4623 58.731 32.419C59.231 32.3973 59.7382 32.3973 60.2382 32.3323C60.4049 32.3107 60.702 32.3973 60.702 32.0146C60.702 31.574 60.3614 31.6751 60.173 31.6462C59.76 31.5957 59.0354 31.6246 58.4919 31.639C57.8832 31.7112 57.9991 31.444 57.7383 30.9385C57.0861 29.6747 56.3832 28.4325 55.7238 27.1759C55.3253 26.4176 54.818 25.2765 54.4702 24.4894C54.1949 23.8611 54.4702 24.0199 55.1803 24.0127C55.4629 24.0127 55.7528 24.0416 56.0209 23.9766C56.1803 23.9405 56.3615 23.9549 56.4122 23.7166C56.3832 23.3916 56.3832 23.3916 55.9919 23.3628C55.8253 23.3483 55.6369 23.3339 55.4557 23.3266C54.4122 23.2905 53.347 23.2905 52.3036 23.2905C51.6297 23.2977 50.963 23.3266 50.2891 23.4133C50.1732 23.4277 49.992 23.5144 49.9993 23.7166C50.0065 23.8683 50.2094 24.0272 50.3471 24.056C50.579 24.1066 50.8253 24.0488 51.0645 24.0416C51.4775 24.0199 51.9775 24.056 52.5499 24.0272C52.405 24.3955 52.2601 24.5544 52.1659 24.7421C51.0717 26.822 49.9558 28.8803 48.8906 30.9674C48.5573 31.6246 48.5717 31.9351 47.6877 31.8846C47.0428 31.8629 46.5718 31.9423 46.5718 32.1879C46.5718 32.7006 47.079 32.614 47.3979 32.6212C48.6877 32.6573 49.9775 32.7006 51.2601 32.6356C52.0644 32.5923 52.1079 32.3901 52.0934 32.289C52.0572 31.7907 51.5934 31.8918 51.2456 31.8846C50.6369 31.8701 50.0282 31.8846 49.2964 31.8846C49.6297 31.2346 50.1949 30.1441 50.3906 29.6313C50.5137 29.4725 50.7239 29.5447 51.2601 29.5591C52.4268 29.5952 55.0644 29.4797 56.1006 29.5086C56.1006 29.5086 56.4629 29.9852 56.8905 30.9963C56.905 31.0324 57.1948 31.6607 57.2093 31.6968C57.1948 31.6607 57.0861 31.7257 56.5137 31.7546C56.1513 31.7762 55.789 31.7401 55.4267 31.7907C55.2745 31.8124 55.0064 31.8629 55.0064 32.1157C55.0209 32.5706 55.1948 32.5057 55.4267 32.549C55.5571 32.5779 55.7021 32.5273 55.8398 32.5273ZM50.9703 28.8369C51.7891 27.2048 52.5427 25.7026 53.3615 24.0777C54.1296 25.6882 54.8543 27.2409 55.6079 28.8153C54.1441 28.8803 52.6079 28.8514 50.9703 28.8369Z" fill="black"/>
<path fill-rule="evenodd" clip-rule="evenodd" d="M90.5129 32.5419C90.7013 32.5275 91.1144 32.607 91.0274 31.9281C91.0347 31.7331 90.7593 31.7764 90.5564 31.762C90.0564 31.7187 89.0419 31.7187 88.5419 31.6825C88.368 31.6681 88.4622 31.3864 88.4478 31.2637C88.368 30.3826 88.3173 29.5882 88.9115 28.866C90.0274 27.5011 91.8245 25.3923 92.9477 24.0346C92.9477 24.0346 93.31 23.9623 93.9766 24.0201C94.3752 24.049 94.781 24.0562 95.1795 24.0129C95.3245 23.9985 95.5636 24.0562 95.5853 23.7168C95.7085 23.1391 95.3824 23.3413 95.194 23.3196C95.1071 23.3052 94.9984 23.2907 94.8969 23.2907C93.2375 23.2907 91.5709 23.2763 89.9115 23.3052C89.6869 23.3124 89.1796 23.2402 89.2521 23.6518C89.2666 24.1212 89.6724 23.984 89.897 24.0057C90.5419 24.0562 91.1868 24.0201 91.8318 24.0201C91.9912 24.0273 92.1361 23.9768 91.8825 24.2079C91.6433 24.5257 91.426 24.8579 91.1578 25.154C90.3608 26.0567 89.5274 26.9305 88.7376 27.8333C88.042 28.6277 88.0202 28.671 87.3391 27.8622C86.3681 26.6994 85.4478 25.4934 84.3898 24.1501C84.955 24.114 85.3826 24.114 85.8029 24.049C86.0202 24.0129 86.4405 24.114 86.426 23.7457C86.426 23.2835 86.013 23.3124 85.8101 23.3124C84.2232 23.3124 82.6362 23.3629 81.0493 23.4207C80.8826 23.4279 80.5493 23.4352 80.5493 23.7385C80.5493 24.1285 80.8682 24.1212 81.0421 24.1429C81.6 24.2007 82.1652 24.1501 82.7304 24.179C82.9333 24.1862 83.187 24.2512 83.3246 24.3884C83.8536 24.9084 84.3609 25.4501 84.8391 26.0206C85.4695 26.7717 85.9913 27.6239 86.6869 28.3172C87.4405 29.0755 87.5927 29.2921 87.6217 29.451C87.6362 30.2309 87.6579 31.7042 87.3463 31.7187C86.8246 31.7259 85.6724 31.8342 85.1579 31.8775C85.0203 31.892 84.7884 31.8414 84.7739 32.1881C84.8174 32.3397 84.6724 32.5636 85.1507 32.5781C85.3174 32.5853 85.5058 32.6214 85.6869 32.6142C87.2739 32.5275 88.9115 32.6575 90.5129 32.5419Z" fill="black"/>
<path fill-rule="evenodd" clip-rule="evenodd" d="M84.8533 36.1961C83.2809 36.2033 81.7084 36.1311 80.1432 36.1961C79.9766 36.2033 79.6505 36.1817 79.6505 36.6005C79.549 37.0555 79.9911 36.94 80.1432 36.9616C80.636 37.0266 81.8171 36.9905 82.3171 36.9472C82.3171 36.9472 82.3461 37.3805 82.3026 37.9727C82.2591 38.5504 82.2881 39.1354 82.3171 39.7204C82.3606 40.5653 82.3751 40.5654 81.5055 40.5726C79.252 40.587 76.9984 40.6015 74.7448 40.6231C74.3897 40.6231 74.3535 40.4426 74.3535 40.1681C74.3607 39.1282 74.252 38.0305 74.252 36.9111C74.4767 36.8822 74.9187 36.8894 75.252 36.875C75.5491 36.8605 76.2013 37.0338 76.194 36.55C76.2592 36.0444 75.5491 36.1455 75.2303 36.1383C73.8825 36.1239 72.6289 36.1167 71.2811 36.1889C71.0854 36.1961 70.4912 36.1383 70.6072 36.615C70.5927 37.005 71.0492 36.9039 71.2448 36.9111C71.7666 36.9327 72.2303 36.8894 72.7521 36.9039C72.9477 36.9111 73.3825 36.8605 73.397 36.9977C73.5202 37.9727 73.5129 39.1932 73.5636 40.1681C73.6288 41.5114 73.6361 42.8547 73.7086 44.1907C73.7303 44.6168 73.6071 44.754 73.1796 44.754C72.5564 44.754 71.9332 44.7974 71.3173 44.8913C71.0999 44.9274 70.6579 44.8551 70.7231 45.3173C70.6796 45.7001 71.1796 45.6496 71.4042 45.6496C72.3897 45.6496 73.3752 45.5845 74.3607 45.5412C74.8027 45.5196 75.2955 45.6423 75.7303 45.5701C75.9332 45.5412 76.1795 45.5701 76.252 45.1296C76.1723 44.9346 76.281 44.9129 76.0708 44.8335C75.8535 44.754 75.4694 44.6746 75.0201 44.7179C74.5346 44.7396 74.5854 44.6602 74.5709 44.5157C74.4477 43.4613 74.4694 42.4214 74.4549 41.8725C74.4694 41.4464 74.6216 41.4753 74.7738 41.4536C75.2448 41.3814 75.7303 41.3886 76.2085 41.3814C78.1433 41.3598 80.078 41.3525 82.0128 41.3236C82.4041 41.3164 82.5273 41.4897 82.549 41.8653C82.5925 42.5803 82.6504 43.3024 82.7591 44.0174C82.8244 44.4579 82.7157 44.6674 82.2447 44.6529C81.6287 44.6457 81.0055 44.6313 80.3896 44.689C80.165 44.7107 79.7085 44.7179 79.7447 45.079C79.7012 45.5123 79.9911 45.4473 80.165 45.5051C80.4258 45.5845 80.7519 45.5557 81.0273 45.5412C82.3533 45.4762 83.7519 45.4834 85.0779 45.4834C85.4765 45.4834 85.4765 45.2451 85.4692 44.9562C85.4765 44.6385 85.1939 44.6096 85.02 44.5735C84.7301 44.5085 84.4185 44.5374 84.1142 44.5446C83.7446 44.5591 83.578 44.4218 83.549 44.0318C83.4475 42.5153 83.3099 40.9987 83.1867 39.4821C83.1432 38.9043 83.1142 38.3266 83.078 37.7416C83.0707 37.1061 83.0997 36.9544 83.1722 36.9472C83.6142 36.9039 84.4475 36.9544 84.9185 36.9255C85.1287 36.9111 85.5779 36.9111 85.5779 36.6078C85.5634 35.9939 85.0635 36.1961 84.8533 36.1961Z" fill="black"/>
<path fill-rule="evenodd" clip-rule="evenodd" d="M112.795 36.5355C112.853 36.3044 112.433 36.1961 112.23 36.1961C111.346 36.1745 110.462 36.16 109.578 36.1961C109.013 36.2178 108.361 36.1745 107.803 36.1961C107.477 36.2106 107.361 36.615 107.419 36.7522C107.484 36.9616 107.788 36.9544 107.998 36.9544C108.491 36.9544 108.832 37.0339 109.187 36.9905C109.687 36.9977 109.795 36.9255 109.788 37.1855C109.752 38.4277 109.665 40.4787 109.643 41.7209C109.622 42.5658 109.643 43.4036 109.643 44.3857C109.462 44.1763 109.361 44.0535 109.267 43.938C108.093 42.5225 106.926 41.0926 105.73 39.6915C104.875 38.6805 103.998 37.6838 103.093 36.7161C102.854 36.4633 102.47 36.2033 102.143 36.1889C101.042 36.1311 99.9261 36.1672 98.8246 36.2106C98.6362 36.2178 98.2739 36.1745 98.2739 36.5355C98.2739 36.9977 98.6145 36.8966 98.8029 36.9255C99.2159 36.9905 99.6507 36.9255 100.071 36.9761C100.245 36.9977 100.556 36.8966 100.571 37.0266C100.651 37.6405 100.636 38.536 100.658 39.1571C100.672 39.6698 100.643 40.1898 100.665 40.7098C100.709 41.9303 100.781 43.6274 100.832 44.8479C100.832 44.8479 100.651 44.8696 100.303 44.8696C99.8971 44.8624 99.4913 44.8407 99.1 44.8985C98.9116 44.9274 98.5638 44.884 98.5855 45.274C98.6507 45.6712 98.9261 45.6279 99.1 45.6351C99.8029 45.6712 100.506 45.6279 101.209 45.6351C102.049 45.6423 102.89 45.6784 103.73 45.664C103.89 45.664 104.245 45.664 104.216 45.3968C104.223 44.9346 104.064 44.949 103.89 44.9057C103.658 44.8118 103.361 44.8768 103.107 44.8696C102.788 44.8552 102.462 44.884 102.143 44.8552C102.013 44.8407 101.701 44.884 101.68 44.7685C101.614 44.3568 101.614 43.9596 101.607 43.6274C101.549 41.6486 101.506 39.6698 101.477 37.6911C101.477 37.46 101.412 37.2 101.477 36.9616C101.788 36.9616 102.165 36.875 102.368 37.0555C102.861 37.4961 103.448 38.2182 103.883 38.7166C105.172 40.2259 106.455 41.7353 107.738 43.2591C108.281 43.9019 108.774 44.5879 109.346 45.209C109.535 45.4112 109.839 45.5918 110.071 45.5918C110.39 45.5918 110.52 45.0213 110.527 44.7468C110.542 43.9452 110.44 43.1436 110.44 42.3419C110.455 40.8181 110.52 39.2943 110.535 37.7705C110.535 37.3227 110.477 36.9616 110.904 36.9616C111.303 36.9616 111.962 37.0266 112.39 36.9616C112.643 36.9472 112.882 36.9183 112.795 36.5355Z" fill="black"/>
<path fill-rule="evenodd" clip-rule="evenodd" d="M31.746 36.4128C30.7025 36.3261 29.5793 36.4056 28.5359 36.3622C28.1736 36.3478 27.8112 36.3406 27.4489 36.3983C27.2895 36.42 26.9997 36.4417 26.9997 36.7089C27.0504 37.0772 27.2895 37.0555 27.4562 37.0772C27.9344 37.135 29.1518 37.1566 29.6083 37.135C29.6083 37.135 29.6156 37.3155 29.6228 37.8499C29.6445 38.8466 29.7822 39.8432 29.8185 40.847C29.8547 41.9014 29.8257 42.9558 29.8257 44.0102C29.9127 44.3207 29.7532 44.1763 29.7025 44.068C29.3837 43.6924 29.0793 43.3025 28.7533 42.9414C26.9417 40.9265 25.1301 38.9116 23.2968 36.9111C23.0794 36.68 22.7389 36.42 22.4563 36.4128C21.1664 36.3839 19.8838 36.4344 18.594 36.4778C18.4201 36.485 18.0723 36.3983 18.0723 36.7378C18.0723 37.3372 18.3549 37.1783 18.565 37.1783C19.0867 37.1639 19.6012 37.2144 20.123 37.2216C20.5577 37.2288 20.8114 37.33 20.8041 37.8283C20.7896 38.6082 20.7969 39.3882 20.8114 40.1682C20.8403 41.5909 20.8621 43.0136 20.9056 44.4435C20.92 44.8913 20.7027 45.0574 20.2751 45.0357C19.8548 45.0068 19.4346 44.9635 19.0143 44.9635C18.8766 44.9635 18.6737 44.9924 18.5867 45.1224C18.5433 45.599 18.5288 45.5774 18.7389 45.6712C18.9636 45.6929 19.065 45.6568 19.1809 45.664C20.7316 45.7001 22.2823 45.7434 23.833 45.7579C23.9635 45.7579 24.2099 45.5557 24.2026 45.4618C24.1954 45.3029 24.0432 45.0574 23.9128 45.0285C23.6301 44.9707 23.3186 45.014 23.0287 45.0357C21.6954 45.1224 21.6084 45.0357 21.6592 43.743C21.6592 43.6852 21.6592 43.6274 21.6519 43.5624C21.6229 41.6631 21.5795 39.7565 21.5722 37.8572C21.5722 37.6549 21.7026 37.3227 21.8403 37.2866C22.0722 37.2216 22.4055 37.2794 22.5939 37.4166C22.9345 37.6549 23.2099 37.9871 23.4925 38.2977C24.6664 39.5904 25.8185 40.8976 26.9924 42.1975C27.9199 43.223 28.8475 44.2557 29.7967 45.2668C29.9416 45.4185 30.1156 45.6568 30.4054 45.5485C30.6228 45.4762 30.5721 45.1585 30.6228 44.9563C30.659 44.8046 30.6373 44.6385 30.63 44.4796C30.5503 42.4936 30.4706 40.5148 30.3909 38.5288C30.3764 38.1099 30.217 37.4238 30.4199 37.1783C30.5866 36.9761 31.2315 37.1422 31.6445 37.135C31.6663 37.135 31.8547 37.1639 31.8692 37.1566C32.0865 37.1422 32.3112 37.2216 32.2604 36.9111C32.2677 36.3478 31.9561 36.4272 31.746 36.4128Z" fill="black"/>
<path fill-rule="evenodd" clip-rule="evenodd" d="M124.984 45.1585C124.955 45.4907 124.933 45.8229 125.368 45.8301C125.766 45.8229 125.73 45.4185 125.766 45.1874C125.875 44.4435 125.911 43.6924 125.991 42.9486C126.056 42.3347 125.766 42.0675 125.15 42.1181C124.629 42.1614 124.063 42.1181 123.534 42.1325C122.65 42.1614 121.766 42.1542 120.882 42.1975C120.73 42.2047 120.426 42.2047 120.447 42.5297C120.498 42.898 120.737 42.8547 120.897 42.8691C121.288 42.9052 121.687 42.8475 122.085 42.8475C123.071 42.8403 124.063 42.8475 125.114 42.8475C124.868 43.5985 124.143 44.3207 123.426 44.6818C122.1 45.3535 120.766 45.3318 119.36 44.9201C117.375 44.3424 116.281 42.3636 116.846 40.3848C117.295 38.8249 118.288 37.8355 119.759 37.2433C121.513 36.5356 123.005 36.8966 124.331 38.3699C124.665 38.7382 125.085 38.7021 125.484 38.5577C125.658 38.4999 125.868 38.276 125.889 38.1099C125.947 37.7055 125.926 37.2794 125.889 36.875C125.875 36.7594 125.694 36.5789 125.592 36.5717C125.281 36.5355 125.281 36.7161 125.237 36.8389C125.165 37.0266 125.208 37.2505 125.179 37.4527C125.158 37.6116 125.129 37.6477 125.092 37.8066C125.042 37.7994 125.013 37.756 124.904 37.6766C124.752 37.4455 124.723 37.4311 124.643 37.3805C124.165 37.0266 123.904 36.7089 123.36 36.5644C122.563 36.3478 121.694 36.2756 120.86 36.3189C118.911 36.4272 117.433 37.3877 116.462 39.0777C115.766 40.2765 115.665 41.6559 116.071 42.9269C116.382 43.9019 116.962 44.7829 117.947 45.2307C119.6 45.9746 121.339 46.314 123.114 45.6062C123.73 45.3535 124.302 45.0068 124.991 44.6529C124.976 44.8552 124.976 44.8552 124.984 45.1585Z" fill="black"/>
<path fill-rule="evenodd" clip-rule="evenodd" d="M14.616 45.2596C14.616 44.9057 14.2537 44.8768 14.0508 44.8479C13.5725 44.7829 13.087 44.8552 12.6015 44.8046C12.4059 44.7829 12.145 44.6457 12.0508 44.4868C11.4566 43.418 10.8624 42.3492 10.3334 41.2442C9.71026 39.9515 9.15954 38.6227 8.55086 37.2505C9.21027 37.2144 9.732 37.2 10.2465 37.1422C10.4059 37.1205 10.645 37.1133 10.6885 36.8533C10.7247 36.5356 10.3914 36.4922 10.2392 36.485C8.50738 36.4272 6.78277 36.3983 5.05091 36.3911C4.79729 36.3911 4.2031 36.3911 4.30454 36.6944C4.2973 37.1494 4.76831 36.9905 5.02193 37.0411C5.46395 37.1277 5.91321 37.1422 6.41321 37.1855C6.3335 37.395 6.30451 37.5105 6.24654 37.6116C5.21757 39.4965 4.07267 41.3237 3.20311 43.2736C2.63066 44.5518 2.55095 44.8696 2.47124 44.8624C2.30458 44.8335 0.23939 44.7396 0.0509868 45.0285C-0.151909 45.6785 0.304606 45.5918 0.478516 45.599C2.02197 45.6496 3.57267 45.6784 5.12337 45.6857C5.26105 45.6857 5.51467 45.5846 5.53641 45.4185C5.55815 44.9563 5.23931 44.9707 5.05091 44.9563C4.69584 44.9418 4.24658 44.9852 3.86252 44.9707C3.3263 44.9418 3.20311 44.8263 3.43499 44.3496C3.71035 43.7935 4.02919 43.2591 4.36252 42.7319C4.44222 42.6092 4.6886 42.5225 4.85526 42.5297C6.13785 42.573 8.68129 42.5803 9.95663 42.5658C10.0436 42.5658 10.3552 43.0497 10.9856 44.2269C10.9928 44.263 11.0146 44.2991 11.0291 44.3352C11.203 44.6891 11.0508 44.8118 10.6958 44.8118C10.2537 44.8118 9.80446 44.7829 9.36968 44.8335C9.18128 44.8552 8.86969 44.9202 8.82621 45.1657C8.89868 45.5773 9.18853 45.5557 9.36968 45.5557C10.9204 45.5846 12.4711 45.5846 14.0218 45.5557C14.2319 45.5701 14.616 45.5918 14.616 45.2596ZM4.91323 41.8075C5.21757 41.2298 5.48569 40.7315 5.74655 40.2187C6.18133 39.3665 6.65958 38.5649 7.10161 37.7199C7.19581 37.5466 7.31175 37.3444 7.45667 37.2C7.5871 37.3372 7.76101 37.46 7.83347 37.6261C8.44941 38.926 9.0436 40.2332 9.6378 41.5403C9.69577 41.6631 9.69576 41.6992 9.77547 41.9664C8.10159 41.9086 6.8045 41.9447 4.91323 41.8075Z" fill="black"/>
<path fill-rule="evenodd" clip-rule="evenodd" d="M51.6733 36.7232C51.6733 36.2538 51.253 36.2971 51.0284 36.2899C50.0067 36.2682 48.956 36.2465 47.9343 36.2682C47.1517 36.2827 46.4488 36.2321 45.6734 36.2899C45.5357 36.2971 45.2386 36.3838 45.2242 36.7882C45.2604 37.0987 45.4923 37.0626 45.6299 37.0843C45.9995 37.1421 46.3473 37.0771 46.7314 37.0843C47.2169 37.0915 47.7531 37.0843 48.2386 37.0843C48.7313 37.0698 48.7966 37.0843 48.3328 37.4526C47.9995 37.727 47.6444 37.9798 47.3328 38.2831C46.4053 39.1714 45.485 40.0669 44.572 40.9769C44.2532 41.2946 44.0213 41.2296 43.7242 40.9191C42.9996 40.168 42.217 39.4747 41.4851 38.7309C40.9851 38.2253 40.5213 37.6765 39.9416 37.0337C40.6083 36.9543 41.0865 37.0987 41.5575 37.0048C41.7749 36.9615 42.0141 37.0048 42.13 36.6149C42.2097 36.2321 41.7025 36.1238 41.4633 36.1238C40.159 36.1527 38.9924 36.1382 37.688 36.2032C37.4851 36.2104 37.1736 36.1382 36.9924 36.2032C36.8402 36.261 36.5576 36.2032 36.5576 36.7015C36.6591 37.0121 36.8982 37.0554 37.0504 37.0698C37.4417 37.0987 37.5504 37.0987 37.8475 37.0698C38.4344 37.0121 38.8764 37.1998 39.2822 37.6404C40.1808 38.6153 41.13 39.5397 42.0503 40.493C42.8981 41.3669 44.0213 42.0818 43.8908 43.5479C43.8619 43.9017 43.9343 44.2628 43.9198 44.6239C43.8981 45.0933 43.7894 45.2378 43.3474 45.2233C42.8401 45.2017 42.3329 45.1945 41.8329 45.2378C41.6373 45.2522 41.2894 45.2522 41.2677 45.5339C41.3474 45.8444 41.3402 45.9022 41.5213 45.9528C41.8039 46.0322 42.3401 45.9889 42.6372 45.9816C43.9416 45.9528 45.2531 45.9167 46.5575 45.8517C46.7386 45.8444 47.1227 45.7505 47.0792 45.5772C47.1951 45.1583 46.7386 45.1656 46.5357 45.1295C46.1662 45.0645 45.7676 45.0933 45.3908 45.1656C44.6879 45.1295 44.6879 45.1295 44.6952 44.595C44.7024 43.9523 44.5865 43.3095 44.6155 42.674C44.63 42.349 44.7387 41.9446 44.956 41.7207C46.1082 40.5436 47.3401 39.4458 48.4777 38.2614C49.1734 37.5393 49.7893 37.041 49.8473 37.1204C50.2965 37.1059 51.6733 37.1926 51.6733 36.7232Z" fill="black"/>
<path fill-rule="evenodd" clip-rule="evenodd" d="M67.0569 37.0121C66.9554 36.1383 66.9409 36.1022 66.0786 36.1166C63.7816 36.1455 61.4918 36.2033 59.1947 36.2177C58.2092 36.2249 57.2237 36.1022 56.2455 36.1455C55.8832 36.1599 55.2889 36.196 55.231 36.6727C55.0643 37.1999 55.1513 37.821 55.1875 38.3987C55.1948 38.5215 55.3976 38.7309 55.5281 38.7382C55.7889 38.7598 55.8832 38.5865 55.9194 38.4565C56.0063 38.1532 56.0426 37.8282 56.0353 37.5104C56.0281 37.0338 56.2237 36.8677 56.6947 36.8894C57.7817 36.9399 58.8686 36.9905 59.9483 36.9905C60.5208 36.9905 60.6077 36.8893 60.615 37.0193C60.6874 38.5648 60.7744 40.8325 60.8324 42.378C60.8541 42.9774 60.8686 43.584 60.9918 44.169C61.1005 44.6962 60.9121 44.8045 60.4483 44.8045C59.8686 44.7973 59.2816 44.8045 58.7092 44.8623C58.5135 44.884 58.1802 44.8479 58.1512 45.1945C58.1585 45.5123 58.202 45.5845 58.5208 45.5845C58.7092 45.5845 59.1077 45.5989 59.3106 45.5917C60.8541 45.5339 62.3541 45.6206 63.8975 45.5339C64.0642 45.5267 64.4265 45.5845 64.4192 45.1367C64.4627 44.8912 64.4192 44.7251 64.2236 44.7107C63.7453 44.6818 62.8903 44.7323 62.3613 44.7251C61.9773 44.7684 61.8613 44.6457 61.8468 44.2846C61.7236 41.8508 61.5932 39.417 61.4555 36.9255C61.7091 36.911 61.9193 36.8894 62.1367 36.8894C63.0859 36.8894 64.028 36.8894 64.9772 36.8894C66.1149 36.8821 66.1149 36.8821 66.412 37.9582C66.4192 37.9799 66.412 38.0087 66.4265 38.016C66.5497 38.3193 66.6511 38.4565 66.9554 38.3915C67.2598 38.3626 67.1221 37.9799 67.1366 37.7632C67.1366 37.5177 67.0859 37.2721 67.0569 37.0121Z" fill="black"/>
<path fill-rule="evenodd" clip-rule="evenodd" d="M95.4912 45.1657C95.4912 44.7396 95.1217 44.7685 94.9188 44.7468C94.3826 44.689 93.9043 44.7685 93.2884 44.754C92.7666 44.8335 92.5203 44.6674 92.5203 44.6674C92.4043 42.4502 92.3246 39.742 92.1869 37.5249C92.1579 37.0049 92.4116 36.9255 92.8463 36.9472C93.4478 36.9688 94.0565 36.9616 94.6507 36.8966C94.8173 36.8822 95.1434 36.8677 95.1289 36.4777C95.1217 36.2033 94.7883 36.1744 94.6217 36.1744C92.8971 36.1889 91.1942 36.1383 89.4696 36.2033C89.3029 36.2105 88.9841 36.1744 88.9479 36.6222C89.0421 36.9616 89.1942 36.9616 89.3681 36.9616C89.7739 36.9688 90.1942 36.9833 90.5783 36.9616C91.2377 36.9255 91.4043 37.0772 91.4261 37.7271C91.4623 38.8465 91.4985 39.9731 91.542 41.0925C91.5782 42.1541 91.629 43.6418 91.6797 44.7035C91.6797 44.7035 91.6072 44.7468 91.1072 44.7974C90.571 44.7396 90.0203 44.754 89.4841 44.8046C89.2957 44.819 88.9334 44.8623 88.9406 45.1584C88.8899 45.6495 89.2739 45.5701 89.4623 45.5845C90.0638 45.6423 90.6725 45.6062 91.2739 45.6062C91.2739 45.6206 91.6435 45.5845 91.6435 45.599C92.8463 45.5484 93.6869 45.6784 94.8898 45.5918C95.0999 45.5773 95.4912 45.5918 95.4912 45.1657Z" fill="black"/>
</svg>